<?xml version="1.0" encoding="UTF-8"?>
<svg version="1.1" xmlns="http://www.w3.org/2000/svg" width="145" height="95">
<path d="M0 0 C4.68468468 3.51351351 4.68468468 3.51351351 5.4375 7.0625 C6.36289295 10.2499646 9.29878797 11.2338229 12 13 C14.36105405 15.42994422 16.47710499 17.95420998 18 21 C23.00584683 19.07626547 27.86643803 16.83560645 32.75 14.625 C35.32449269 13.46182559 37.89923855 12.29925204 40.4753418 11.13964844 C42.16408932 10.37733595 43.85045033 9.60971531 45.53442383 8.83691406 C46.32872803 8.4756543 47.12303223 8.11439453 47.94140625 7.7421875 C48.64724854 7.41847168 49.35309082 7.09475586 50.08032227 6.76123047 C54.42166302 5.0397119 57.149551 5.65352078 61.375 7.375 C64.32523424 10.32523424 64.46009717 11.00699574 64.625 15 C64.42016287 18.4719893 64.18777475 19.73711535 62.125 22.625 C60 24 60 24 58 24 C58.61979364 21.41752649 59.33649298 18.91574485 60.125 16.375 C61.35340251 13.15899773 61.35340251 13.15899773 60 11 C49.22271143 7.78974383 37.27862259 16.67714984 27.86328125 21.28515625 C26.38408203 22.00251953 26.38408203 22.00251953 24.875 22.734375 C23.98554687 23.16975586 23.09609375 23.60513672 22.1796875 24.05371094 C20 25 20 25 18 25 C18.0825 26.010625 18.165 27.02125 18.25 28.0625 C17.87983299 33.89263045 15.76532196 37.28113388 11.625 41.3125 C6.35761575 44.69867559 2.20321008 45.36757954 -3.89453125 44.46875 C-9.65063044 43.18724369 -12.54761636 39.57207563 -16 35 C-17.954962 31.83482343 -18 30.94733824 -18 27 C-19.98020421 27.44033992 -19.98020421 27.44033992 -22 29 C-22.68695188 30.96271964 -23.37151477 32.92640284 -24.03125 34.8984375 C-26.19260625 39.58718614 -30.38651784 42.19325892 -34.875 44.4375 C-40.55716266 45.46028928 -45.19162831 44.95536617 -50.3125 42.25 C-55.29533701 38.0783225 -58.6347188 33.41809762 -60 27 C-59.13350392 21.53358648 -56.48150573 16.40743045 -52.5 12.625 C-48.2746961 9.87855247 -45.61708482 8.73518141 -40.5 8.8125 C-39.09234375 8.82216797 -39.09234375 8.82216797 -37.65625 8.83203125 C-35 9 -35 9 -33.1394043 9.64111328 C-30.1953918 10.13497365 -28.76135238 9.24190661 -26.11328125 7.91015625 C-25.17419922 7.45576172 -24.23511719 7.00136719 -23.26757812 6.53320312 C-21.31473253 5.56129782 -19.36415898 4.58481238 -17.41601562 3.60351562 C-11.66961824 0.83412029 -6.45614258 -1.37747954 0 0 Z M-18.4375 7.5 C-19.35982422 7.92925781 -20.28214844 8.35851562 -21.23242188 8.80078125 C-23.49411773 9.85545807 -25.74935886 10.9219859 -28 12 C-26.87548273 14.9719385 -25.77706209 17.33440687 -24 20 C-19.92196227 20.60181189 -19.92196227 20.60181189 -16 20 C-13.78208561 17.25688994 -13.78208561 17.25688994 -12 14 C-7.37735881 10.112779 -3.84085674 9.40281771 2 9 C1.65555119 6.52733235 1.65555119 6.52733235 1 4 C-5.74803435 0.62598283 -12.29047312 4.55261346 -18.4375 7.5 Z " fill="#383735" transform="translate(75,21)"/>
<path d="M0 0 C-1.5 3 -1.5 3 -3 6 C-1.29159719 4.36587557 -0.06546953 3.13093906 1 1 C4.12176752 1.0743278 6.29628818 1.43765193 8.76953125 3.4140625 C10.45707881 5.20831682 11.81074495 6.84090965 13 9 C12.875 12.4375 12.875 12.4375 12 15 C12.66 15 13.32 15 14 15 C13.56577288 20.42783897 12.52657136 23.80623946 9 28 C4.03591143 31.54577755 -1.10089104 31.8372308 -7 31 C-12.45598393 28.52936577 -15.61173031 24.39686918 -18 19 C-18.3125 15.5 -18.3125 15.5 -18 13 C-20.64 13 -23.28 13 -26 13 C-26 11.68 -26 10.36 -26 9 C-19.84765625 8.90234375 -19.84765625 8.90234375 -18 9 C-17.67 9.33 -17.34 9.66 -17 10 C-16.46375 9.0925 -15.9275 8.185 -15.375 7.25 C-11.37898741 1.33309715 -7.10573279 -0.56845862 0 0 Z " fill="#F7F7F7" transform="translate(77,32)"/>
<path d="M0 0 C3.19470263 2.73831654 4.73349804 4.74565554 5.23828125 9.015625 C5.43483911 14.93305124 4.47284395 18.17660563 1 23 C-3.41529562 27.01390511 -7.73649579 27.352797 -13.49609375 27.27734375 C-18.59459459 26.71261121 -21.19174224 23.95714735 -24.375 20.1875 C-26.30638037 16.39902311 -26.71193078 14.19248128 -26 10 C-21.86429132 7.01938183 -17.02608312 4.95567086 -12.4375 2.75 C-11.30538086 2.18539062 -11.30538086 2.18539062 -10.15039062 1.609375 C-9.41884766 1.25875 -8.68730469 0.908125 -7.93359375 0.546875 C-6.9444397 0.06492676 -6.9444397 0.06492676 -5.93530273 -0.42675781 C-3.54495181 -1.13478657 -2.31436565 -0.87375147 0 0 Z " fill="#F9F9F9" transform="translate(45,36)"/>
<path d="M0 0 C2.95023424 2.95023424 3.08509717 3.63199574 3.25 7.625 C3.04516287 11.0969893 2.81277475 12.36211535 0.75 15.25 C-1.375 16.625 -1.375 16.625 -3.375 16.625 C-2.75520636 14.04252649 -2.03850702 11.54074485 -1.25 9 C-0.02159749 5.78399773 -0.02159749 5.78399773 -1.375 3.625 C-12.15228857 0.41474383 -24.09637741 9.30214984 -33.51171875 13.91015625 C-34.49785156 14.38839844 -35.48398438 14.86664063 -36.5 15.359375 C-37.38945313 15.79475586 -38.27890625 16.23013672 -39.1953125 16.67871094 C-41.375 17.625 -41.375 17.625 -43.375 17.625 C-43.2925 18.635625 -43.21 19.64625 -43.125 20.6875 C-43.49516701 26.51763045 -45.60967804 29.90613388 -49.75 33.9375 C-55.01738425 37.32367559 -59.17178992 37.99257954 -65.26953125 37.09375 C-71.02563044 35.81224369 -73.92261636 32.19707563 -77.375 27.625 C-79.329962 24.45982343 -79.375 23.57233824 -79.375 19.625 C-81.025 19.625 -82.675 19.625 -84.375 19.625 C-84.705 18.635 -85.035 17.645 -85.375 16.625 C-82.735 16.625 -80.095 16.625 -77.375 16.625 C-77.1275 17.82125 -76.88 19.0175 -76.625 20.25 C-75.34001957 25.32702059 -73.21291838 29.00330731 -69.25 32.5 C-63.8295385 34.62105015 -58.49714292 34.29308203 -53 32.5625 C-48.79323627 29.45750772 -46.92800193 25.79092423 -45.625 20.6875 C-45.5425 20.006875 -45.46 19.32625 -45.375 18.625 C-46.035 18.625 -46.695 18.625 -47.375 18.625 C-47.045 16.315 -46.715 14.005 -46.375 11.625 C-45.715 11.625 -45.055 11.625 -44.375 11.625 C-43.88 12.615 -43.88 12.615 -43.375 13.625 C-38.36915317 11.70126547 -33.50856197 9.46060645 -28.625 7.25 C-26.05050731 6.08682559 -23.47576145 4.92425204 -20.8996582 3.76464844 C-19.21091068 3.00233595 -17.52454967 2.23471531 -15.84057617 1.46191406 C-15.04627197 1.1006543 -14.25196777 0.73939453 -13.43359375 0.3671875 C-12.37483032 -0.11838623 -12.37483032 -0.11838623 -11.29467773 -0.61376953 C-6.95333698 -2.3352881 -4.225449 -1.72147922 0 0 Z " fill="#2D2C2A" transform="translate(136.375,28.375)"/>
<path d="M0 0 C10.23 0 20.46 0 31 0 C30.67 2.31 30.34 4.62 30 7 C29.34 7 28.68 7 28 7 C27.67 6.34 27.34 5.68 27 5 C26.34 5 25.68 5 25 5 C25 5.66 25 6.32 25 7 C24.34 7 23.68 7 23 7 C23 6.34 23 5.68 23 5 C21.02 5.66 19.04 6.32 17 7 C17 6.34 17 5.68 17 5 C16.01 4.67 15.02 4.34 14 4 C14 3.34 14 2.68 14 2 C13.34 2 12.68 2 12 2 C12 3.32 12 4.64 12 6 C10.68 6.33 9.36 6.66 8 7 C8 6.34 8 5.68 8 5 C7.34 5 6.68 5 6 5 C6 5.66 6 6.32 6 7 C3.5625 6.3125 3.5625 6.3125 1 5 C0.67 3.35 0.34 1.7 0 0 Z M3 2 C4 4 4 4 4 4 Z " fill="#000000" transform="translate(11,70)"/>
<path d="M0 0 C9.24 0 18.48 0 28 0 C28 0.66 28 1.32 28 2 C27.34 2 26.68 2 26 2 C26 3.65 26 5.3 26 7 C20 7 14 7 8 7 C8 6.34 8 5.68 8 5 C7.01 5 6.02 5 5 5 C5 5.66 5 6.32 5 7 C4.01 6.67 3.02 6.34 2 6 C1.34 4.02 0.68 2.04 0 0 Z " fill="#000000" transform="translate(43,70)"/>
<path d="M0 0 C1.99770834 1.83789168 2.93495773 3.29808552 3.1875 6.0234375 C2.89859513 11.31400801 1.50668094 14.75655285 -2.203125 18.5546875 C-6.66305685 22.14202399 -11.00817022 23.30896872 -16.6875 22.875 C-23.5441317 21.7577101 -26.8552649 18.4889735 -31 13 C-32.954962 9.83482343 -33 8.94733824 -33 5 C-34.65 5 -36.3 5 -38 5 C-38.33 4.01 -38.66 3.02 -39 2 C-36.36 2 -33.72 2 -31 2 C-30.7525 3.19625 -30.505 4.3925 -30.25 5.625 C-28.96501957 10.70202059 -26.83791838 14.37830731 -22.875 17.875 C-17.4545385 19.99605015 -12.12214292 19.66808203 -6.625 17.9375 C-2.41823627 14.83250772 -0.55300193 11.16592423 0.75 6.0625 C0.8325 5.381875 0.915 4.70125 1 4 C0.34 4 -0.32 4 -1 4 C-0.67 2.68 -0.34 1.36 0 0 Z " fill="#353633" transform="translate(90,43)"/>
<path d="M0 0 C7.26 0 14.52 0 22 0 C21.67 2.31 21.34 4.62 21 7 C20.38511719 6.91621094 19.77023438 6.83242188 19.13671875 6.74609375 C18.32847656 6.64425781 17.52023438 6.54242188 16.6875 6.4375 C15.88699219 6.33308594 15.08648437 6.22867188 14.26171875 6.12109375 C11.83182884 5.85244822 11.83182884 5.85244822 9 7 C6.3125 6.0625 6.3125 6.0625 4 5 C3.67 5.66 3.34 6.32 3 7 C0 2.25 0 2.25 0 0 Z " fill="#7A7A7A" transform="translate(22,46)"/>
<path d="M0 0 C1.49080078 0.02707031 1.49080078 0.02707031 3.01171875 0.0546875 C3.77097656 0.07789062 4.53023437 0.10109375 5.3125 0.125 C5.6425 0.785 5.9725 1.445 6.3125 2.125 C3.56456182 3.44197037 0.81432815 4.75370369 -1.9375 6.0625 C-2.71480469 6.43568359 -3.49210937 6.80886719 -4.29296875 7.19335938 C-5.42412109 7.72993164 -5.42412109 7.72993164 -6.578125 8.27734375 C-7.61501465 8.7722229 -7.61501465 8.7722229 -8.67285156 9.27709961 C-10.66177999 10.11417528 -12.58330682 10.66083974 -14.6875 11.125 C-14.21384425 6.86209821 -11.76511678 4.90951042 -8.6875 2.125 C-5.26655758 -0.15562828 -4.00562778 -0.09425007 0 0 Z " fill="#ECECEB" transform="translate(34.6875,31.875)"/>
<path d="M0 0 C6.6 0 13.2 0 20 0 C19.67 1.98 19.34 3.96 19 6 C18.67 5.34 18.34 4.68 18 4 C17.34 4 16.68 4 16 4 C15.67 4.66 15.34 5.32 15 6 C15 4.68 15 3.36 15 2 C14.34 2 13.68 2 13 2 C12.67 3.32 12.34 4.64 12 6 C11.34 4.68 10.68 3.36 10 2 C10 3.65 10 5.3 10 7 C8.35 7 6.7 7 5 7 C5 6.34 5 5.68 5 5 C3.68 5 2.36 5 1 5 C0.67 3.35 0.34 1.7 0 0 Z " fill="#60605F" transform="translate(66,46)"/>
<path d="M0 0 C1.65 0.33 3.3 0.66 5 1 C5 1.66 5 2.32 5 3 C6.65 3 8.3 3 10 3 C10 3.66 10 4.32 10 5 C9.34 5 8.68 5 8 5 C8.33 6.65 8.66 8.3 9 10 C-1 10 -1 10 -5 8 C-4.67 6.35 -4.34 4.7 -4 3 C-2.35 2.67 -0.7 2.34 1 2 C0.67 1.34 0.34 0.68 0 0 Z " fill="#000000" transform="translate(88,67)"/>
<path d="M0 0 C1.99770834 1.83789168 2.93495773 3.29808552 3.1875 6.0234375 C2.89167512 11.44073055 1.39444378 14.75249937 -2.40234375 18.62109375 C-5.33953753 21.15612897 -7.39966477 22.08109807 -11.3125 21.8828125 C-13.55626397 21.65142434 -15.7734416 21.35896584 -18 21 C-18 20.67 -18 20.34 -18 20 C-17.26394531 19.91363281 -16.52789062 19.82726562 -15.76953125 19.73828125 C-11.2272858 19.08424591 -7.82311237 18.56588975 -4 15.9375 C-1.43304962 12.16729162 -0.17385185 8.38047154 1 4 C0.34 4 -0.32 4 -1 4 C-0.67 2.68 -0.34 1.36 0 0 Z " fill="#484746" transform="translate(90,43)"/>
<path d="M0 0 C0 0.33 0 0.66 0 1 C-0.99580078 1.23783203 -0.99580078 1.23783203 -2.01171875 1.48046875 C-7.61741647 2.96168231 -11.39540164 4.19386885 -15 9 C-16.97312269 12.94624539 -18.33887777 16.63659331 -19 21 C-20.5625 19.75 -20.5625 19.75 -22 18 C-21.11463413 12.52682917 -18.48909699 7.41464214 -14.5 3.625 C-13.675 3.08875 -12.85 2.5525 -12 2 C-11.401875 1.5875 -10.80375 1.175 -10.1875 0.75 C-6.77955812 -0.41843722 -3.58866602 -0.1196222 0 0 Z " fill="#31302E" transform="translate(37,30)"/>
<path d="M0 0 C1.32 0.33 2.64 0.66 4 1 C4 1.66 4 2.32 4 3 C4.66 3 5.32 3 6 3 C6 3.66 6 4.32 6 5 C5.34 5 4.68 5 4 5 C4 6.65 4 8.3 4 10 C2.02 10 0.04 10 -2 10 C-2 9.34 -2 8.68 -2 8 C-2.66 8 -3.32 8 -4 8 C-4.33 6.35 -4.66 4.7 -5 3 C-3.35 3 -1.7 3 0 3 C0 2.01 0 1.02 0 0 Z " fill="#000000" transform="translate(77,67)"/>
<path d="M0 0 C3.63 0 7.26 0 11 0 C10.67 2.31 10.34 4.62 10 7 C8.35 6.67 6.7 6.34 5 6 C4.67 4.35 4.34 2.7 4 1 C2.68 0.67 1.36 0.34 0 0 Z " fill="#5D5D5C" transform="translate(33,46)"/>
<path d="M0 0 C0.66 1.32 1.32 2.64 2 4 C1.0919838 5.13199353 0.17316174 6.25532363 -0.75 7.375 C-1.26046875 8.00148438 -1.7709375 8.62796875 -2.296875 9.2734375 C-4.16113976 11.16335728 -5.49757989 12.1167929 -8 13 C-10.578125 12.9765625 -10.578125 12.9765625 -13.25 12.625 C-14.14203125 12.51414062 -15.0340625 12.40328125 -15.953125 12.2890625 C-16.62859375 12.19367188 -17.3040625 12.09828125 -18 12 C-18 11.67 -18 11.34 -18 11 C-17.26394531 10.91363281 -16.52789062 10.82726563 -15.76953125 10.73828125 C-9.40384065 9.83531103 -9.40384065 9.83531103 -3.9375 6.625 C-2.33144895 4.44905987 -1.01781724 2.49827867 0 0 Z " fill="#383735" transform="translate(49,52)"/>
<path d="M0 0 C2.64 0 5.28 0 8 0 C9.1577506 3.47325181 9.06866652 6.36067448 9 10 C8.67 10 8.34 10 8 10 C8 8.02 8 6.04 8 4 C5.36 4 2.72 4 0 4 C0 2.68 0 1.36 0 0 Z " fill="#D5B369" transform="translate(51,41)"/>
<path d="M0 0 C0.99 0.33 1.98 0.66 3 1 C5.63804589 0.60602665 5.63804589 0.60602665 8 0 C8 1.65 8 3.3 8 5 C5.03 4.505 5.03 4.505 2 4 C1.67 4.66 1.34 5.32 1 6 C-0.0625 4.125 -0.0625 4.125 -1 2 C-0.67 1.34 -0.34 0.68 0 0 Z " fill="#444444" transform="translate(24,47)"/>
<path d="M0 0 C1.09898702 3.29696105 0.87124444 4.40494903 0.0625 7.6875 C-0.22947266 8.89986328 -0.22947266 8.89986328 -0.52734375 10.13671875 C-0.68332031 10.75160156 -0.83929687 11.36648437 -1 12 C-2.5078125 10.6171875 -2.5078125 10.6171875 -4 9 C-3.76801982 5.52029732 -1.84318124 2.88497934 0 0 Z " fill="#2B2A28" transform="translate(19,39)"/>
<path d="M0 0 C4.31392226 0.4793247 6.16569547 1.7457985 9 5 C8.67 5.99 8.34 6.98 8 8 C5.33333333 5.33333333 2.66666667 2.66666667 0 0 Z " fill="#3C3B3A" transform="translate(82,33)"/>
<path d="M0 0 C0.33 0 0.66 0 1 0 C1.66 3.63 2.32 7.26 3 11 C2.01 10.67 1.02 10.34 0 10 C-0.95024979 6.30458414 -0.95024979 3.69541586 0 0 Z " fill="#464543" transform="translate(18,46)"/>
<path d="M0 0 C0.99 0.33 1.98 0.66 3 1 C3 1.99 3 2.98 3 4 C3.66 4 4.32 4 5 4 C5.33 3.01 5.66 2.02 6 1 C6 2.65 6 4.3 6 6 C4.35 5.67 2.7 5.34 1 5 C0.67 3.35 0.34 1.7 0 0 Z " fill="#282828" transform="translate(66,46)"/>
<path d="M0 0 C2.31 0 4.62 0 7 0 C7 0.99 7 1.98 7 3 C5.02 3 3.04 3 1 3 C0.67 2.01 0.34 1.02 0 0 Z " fill="#23A140" transform="translate(51,45)"/>
<path d="M0 0 C-0.66 0.66 -1.32 1.32 -2 2 C-4.3828125 1.9765625 -4.3828125 1.9765625 -7.125 1.625 C-8.03507812 1.51414062 -8.94515625 1.40328125 -9.8828125 1.2890625 C-10.58148438 1.19367188 -11.28015625 1.09828125 -12 1 C-12 0.67 -12 0.34 -12 0 C-3.42857143 -1.28571429 -3.42857143 -1.28571429 0 0 Z " fill="#575655" transform="translate(43,63)"/>
<path d="M0 0 C0.66 0.33 1.32 0.66 2 1 C1.49396008 3.16874252 1.00016187 4.99967627 0 7 C-0.99 7 -1.98 7 -3 7 C-1.125 2.25 -1.125 2.25 0 0 Z " fill="#3F3E3C" transform="translate(90,52)"/>
</svg>
