<?xml version="1.0" encoding="UTF-8"?>
<svg version="1.1" xmlns="http://www.w3.org/2000/svg" width="208" height="95">
<path d="M0 0 C68.64 0 137.28 0 208 0 C208 31.35 208 62.7 208 95 C139.36 95 70.72 95 0 95 C0 63.65 0 32.3 0 0 Z " fill="#F5F4F3" transform="translate(0,0)"/>
<path d="M0 0 C0.33 0 0.66 0 1 0 C1 16.5 1 33 1 50 C-25.87290225 50.08021762 -25.87290225 50.08021762 -37.29296875 50.09765625 C-45.09752101 50.10963021 -52.90202652 50.12382305 -60.70654297 50.15087891 C-66.99589679 50.17254669 -73.28520052 50.18455579 -79.57458878 50.18975449 C-81.97886062 50.19346117 -84.3831296 50.20069897 -86.78738022 50.21146011 C-90.14461021 50.22589441 -93.50163089 50.22798133 -96.85888672 50.22705078 C-97.86157593 50.23424133 -98.86426514 50.24143188 -99.89733887 50.24884033 C-100.80881683 50.246091 -101.7202948 50.24334167 -102.65939331 50.24050903 C-103.85127164 50.24327441 -103.85127164 50.24327441 -105.06722832 50.24609566 C-107 50 -107 50 -109 48 C-109.39764263 46.01178687 -109.73775349 44.01055661 -110 42 C-110.721875 42.20625 -111.44375 42.4125 -112.1875 42.625 C-115.44641585 43.05952211 -117.08304504 42.41680669 -120 41 C-120 42.65 -120 44.3 -120 46 C-120.33 44.68 -120.66 43.36 -121 42 C-122.65 42 -124.3 42 -126 42 C-125.67 43.65 -125.34 45.3 -125 47 C-125.99 46.67 -126.98 46.34 -128 46 C-128.6875 43.9375 -128.6875 43.9375 -129 42 C-131.99332739 42.9977758 -132.94766315 43.7522025 -135 46 C-135.66 45.67 -136.32 45.34 -137 45 C-136.67 43.68 -136.34 42.36 -136 41 C-135.34 41 -134.68 41 -134 41 C-133.34 39.35 -132.68 37.7 -132 36 C-132.66 35.67 -133.32 35.34 -134 35 C-90.77 34.67 -47.54 34.34 -3 34 C-33.36 33.67 -63.72 33.34 -95 33 C-94.34 30.69 -93.68 28.38 -93 26 C-88.25 24.875 -88.25 24.875 -86 26 C-86 24.68 -86 23.36 -86 22 C-85.01 22 -84.02 22 -83 22 C-82.505 20.515 -82.505 20.515 -82 19 C-81.34 19.33 -80.68 19.66 -80 20 C-79.375 23.0625 -79.375 23.0625 -79 26 C-78.34 26 -77.68 26 -77 26 C-76.67 24.35 -76.34 22.7 -76 21 C-74 23 -74 23 -74 26 C-73.34 26 -72.68 26 -72 26 C-71.67 22.7 -71.34 19.4 -71 16 C-68.525 15.505 -68.525 15.505 -66 15 C-65.505 15.99 -65.505 15.99 -65 17 C-65.66 17 -66.32 17 -67 17 C-67 17.99 -67 18.98 -67 20 C-67.66 20.33 -68.32 20.66 -69 21 C-69 22.32 -69 23.64 -69 25 C-66.36 25.33 -63.72 25.66 -61 26 C-61 24.68 -61 23.36 -61 22 C-60.34 22 -59.68 22 -59 22 C-59 23.32 -59 24.64 -59 26 C-58.1646875 25.7215625 -58.1646875 25.7215625 -57.3125 25.4375 C-54.600867 24.92448835 -52.65628961 25.3359276 -50 26 C-50.33 22.7 -50.66 19.4 -51 16 C-49.35 15.01 -47.7 14.02 -46 13 C-46 13.66 -46 14.32 -46 15 C-44.58344207 15.0272415 -43.16672955 15.04650467 -41.75 15.0625 C-40.56664062 15.07990234 -40.56664062 15.07990234 -39.359375 15.09765625 C-37.01706064 15.08035629 -37.01706064 15.08035629 -34.875 14.46875 C-32.3711326 13.84278315 -30.4722247 14.38194383 -28 15 C-28 12.36 -28 9.72 -28 7 C-28.66 7 -29.32 7 -30 7 C-30 7.66 -30 8.32 -30 9 C-31.32 9.66 -32.64 10.32 -34 11 C-34 9.68 -34 8.36 -34 7 C-34.99 7.33 -35.98 7.66 -37 8 C-38.32 6.68 -39.64 5.36 -41 4 C-37.37 4 -33.74 4 -30 4 C-30 4.66 -30 5.32 -30 6 C-29.01 6 -28.02 6 -27 6 C-27.495 4.515 -27.495 4.515 -28 3 C-24.74741974 2.00615603 -21.96534629 1.95173269 -18.578125 2.12109375 C-17.55332031 2.16943359 -16.52851563 2.21777344 -15.47265625 2.26757812 C-13.87744141 2.35168945 -13.87744141 2.35168945 -12.25 2.4375 C-11.17105469 2.48970703 -10.09210938 2.54191406 -8.98046875 2.59570312 C-6.32000578 2.72519469 -3.65993548 2.86015361 -1 3 C-0.67 2.01 -0.34 1.02 0 0 Z " fill="#FCFCFB" transform="translate(207,45)"/>
<path d="M0 0 C40.26 0 80.52 0 122 0 C122 0.66 122 1.32 122 2 C121.31373535 2.02505615 120.6274707 2.0501123 119.92041016 2.07592773 C116.82174183 2.19171427 113.72339077 2.31451885 110.625 2.4375 C109.54476562 2.47681641 108.46453125 2.51613281 107.3515625 2.55664062 C106.3203125 2.59853516 105.2890625 2.64042969 104.2265625 2.68359375 C103.27346191 2.72025146 102.32036133 2.75690918 101.33837891 2.79467773 C98.97867651 2.85763465 98.97867651 2.85763465 97 4 C97 4.66 97 5.32 97 6 C96.01 6 95.02 6 94 6 C94 5.34 94 4.68 94 4 C91.36 4.33 88.72 4.66 86 5 C86.99 5.99 86.99 5.99 88 7 C88.66 7 89.32 7 90 7 C90.33 7.99 90.66 8.98 91 10 C91.99 9.67 92.98 9.34 94 9 C94 8.34 94 7.68 94 7 C94.66 7 95.32 7 96 7 C96 9.64 96 12.28 96 15 C89.76881139 15.73241819 84.17752541 16.1829304 78 15 C77.34 15 76.68 15 76 15 C73.78629949 16.78657757 73.78629949 16.78657757 73.8046875 19.1640625 C73.82789063 19.97617188 73.85109375 20.78828125 73.875 21.625 C73.91625 23.06875 73.9575 24.5125 74 26 C71.03 26 68.06 26 65 26 C65 24.68 65 23.36 65 22 C64.34 22 63.68 22 63 22 C63 23.32 63 24.64 63 26 C60.36 26 57.72 26 55 26 C54.67 24.35 54.34 22.7 54 21 C54.99 20.67 55.98 20.34 57 20 C57.73323796 17.98491642 57.73323796 17.98491642 58 16 C56.68 16 55.36 16 54 16 C53.855625 17.093125 53.71125 18.18625 53.5625 19.3125 C53 23 53 23 52 26 C51.34 26 50.68 26 50 26 C49.67 25.01 49.34 24.02 49 23 C48.01 24.485 48.01 24.485 47 26 C46.34 26 45.68 26 45 26 C44.01 23.03 44.01 23.03 43 20 C42.34 20.66 41.68 21.32 41 22 C40.01 22 39.02 22 38 22 C38 23.32 38 24.64 38 26 C37.05125 26.061875 36.1025 26.12375 35.125 26.1875 C34.09375 26.455625 33.0625 26.72375 32 27 C31.34 28.65 30.68 30.3 30 32 C60.03 32.33 90.06 32.66 121 33 C121.33 33.66 121.66 34.32 122 35 C79.1 35.33 36.2 35.66 -8 36 C-8.33 37.98 -8.66 39.96 -9 42 C-9.99 42 -10.98 42 -12 42 C-11.67 42.99 -11.34 43.98 -11 45 C-10.34 45 -9.68 45 -9 45 C-8.34 43.68 -7.68 42.36 -7 41 C-5.0625 41.8125 -5.0625 41.8125 -3 43 C-2.67 43.99 -2.34 44.98 -2 46 C-2 44.68 -2 43.36 -2 42 C1.56365506 40.81211498 3.72479778 40.95997059 7.4375 41.5 C11.06062655 42.09265909 11.06062655 42.09265909 15 42 C15.99 45.96 15.99 45.96 17 50 C-5.77 50 -28.54 50 -52 50 C-52 49.34 -52 48.68 -52 48 C-52.66 48 -53.32 48 -54 48 C-54 46.35 -54 44.7 -54 43 C-54.66 43 -55.32 43 -56 43 C-56 44.32 -56 45.64 -56 47 C-60.66666667 47 -65.33333333 47 -70 47 C-70 44.69 -70 42.38 -70 40 C-69.01 40 -68.02 40 -67 40 C-66.67 40.66 -66.34 41.32 -66 42 C-65.34 41.34 -64.68 40.68 -64 40 C-62.68 40 -61.36 40 -60 40 C-60 39.34 -60 38.68 -60 38 C-59.34 38 -58.68 38 -58 38 C-58 38.99 -58 39.98 -58 41 C-53.545 40.505 -53.545 40.505 -49 40 C-49.66 38.68 -50.32 37.36 -51 36 C-60.57 35.67 -70.14 35.34 -80 35 C-80 34.34 -80 33.68 -80 33 C-45.02 32.67 -10.04 32.34 26 32 C25.34 31.67 24.68 31.34 24 31 C24.33 29.68 24.66 28.36 25 27 C24.01 26.34 23.02 25.68 22 25 C21.8125 21.875 21.8125 21.875 22 19 C23.98 19.495 23.98 19.495 26 20 C26.5534764 17.92446352 27 16.15634036 27 14 C27.82352941 9.17647059 27.82352941 9.17647059 29 8 C28.505 7.01 28.505 7.01 28 6 C26.35 6 24.7 6 23 6 C22.505 4.515 22.505 4.515 22 3 C15.07 2.67 8.14 2.34 1 2 C0.505 1.01 0.505 1.01 0 0 Z " fill="#E3C2C8" transform="translate(83,45)"/>
<path d="M0 0 C11.88 0 23.76 0 36 0 C36.495 0.99 36.495 0.99 37 2 C35.68 2 34.36 2 33 2 C33 3.32 33 4.64 33 6 C32.195625 6.144375 31.39125 6.28875 30.5625 6.4375 C28.07896294 6.74135249 28.07896294 6.74135249 27 8 C25.4840625 8.061875 25.4840625 8.061875 23.9375 8.125 C18.81234788 8.76166486 15.33905085 12.27003588 12 16 C11.67 16.99 11.34 17.98 11 19 C10.34 19 9.68 19 9 19 C8.35118552 21.54093855 7.70587101 24.08268273 7.0625 26.625 C6.88009766 27.33785156 6.69769531 28.05070312 6.50976562 28.78515625 C5.48683201 32.83969313 4.62042633 36.85947059 4 41 C4.66 41 5.32 41 6 41 C6.33 40.34 6.66 39.68 7 39 C7 43.62 7 48.24 7 53 C7.66 53.33 8.32 53.66 9 54 C11.31078249 59.35128577 13 65.15846331 13 71 C13.66 71 14.32 71 15 71 C15.33 69.68 15.66 68.36 16 67 C16 69.64 16 72.28 16 75 C16.33 73.68 16.66 72.36 17 71 C20.22543513 71.52023147 23.08710815 72.40624673 26.125 73.5625 C31.31931155 75.34340682 36.5528709 75.71697255 42 75 C42.66 74.34 43.32 73.68 44 73 C43.01 72.01 43.01 72.01 42 71 C43.65 71 45.3 71 47 71 C47 71.99 47 72.98 47 74 C51.5414119 74.33686543 56.0831665 74.66887125 60.625 75 C61.91019531 75.09539062 63.19539063 75.19078125 64.51953125 75.2890625 C65.76347656 75.37929687 67.00742188 75.46953125 68.2890625 75.5625 C69.43068848 75.64628906 70.57231445 75.73007813 71.74853516 75.81640625 C77.96835426 76.22391746 77.96835426 76.22391746 84 75 C85.20882096 72.99983534 85.20882096 72.99983534 86 71 C86.66 71 87.32 71 88 71 C87.979375 70.05125 87.95875 69.1025 87.9375 68.125 C88 65 88 65 89 63 C89.66 63 90.32 63 91 63 C91 65.64 91 68.28 91 71 C92.2375 70.62875 93.475 70.2575 94.75 69.875 C98.65289982 68.87851494 98.65289982 68.87851494 101.5 69.875 C101.995 70.24625 102.49 70.6175 103 71 C103.34900558 67.28263359 103.34900558 67.28263359 101.5 64.1875 C101.005 63.795625 100.51 63.40375 100 63 C100.66 62.01 101.32 61.02 102 60 C102 60.99 102 61.98 102 63 C102.99 63 103.98 63 105 63 C105 62.01 105 61.02 105 60 C106.98 60 108.96 60 111 60 C111 60.99 111 61.98 111 63 C109.125 64.0625 109.125 64.0625 107 65 C106.34 64.67 105.68 64.34 105 64 C105.41586354 68.2787981 105.41586354 68.2787981 107.5625 71.875 C108.036875 72.24625 108.51125 72.6175 109 73 C108.34 73 107.68 73 107 73 C107 73.99 107 74.98 107 76 C108.98 76.495 108.98 76.495 111 77 C108.669801 78.1650995 107.33000001 78.12332151 104.73532104 78.12025452 C103.84067139 78.12162918 102.94602173 78.12300385 102.02426147 78.12442017 C101.04027374 78.12082489 100.05628601 78.11722961 99.04248047 78.11352539 C98.00830994 78.11367142 96.9741394 78.11381744 95.90863037 78.1139679 C92.47812834 78.11326924 89.04768009 78.10547901 85.6171875 78.09765625 C83.24350006 78.0957919 80.86981223 78.09436808 78.49612427 78.09336853 C72.23910465 78.08954466 65.98210813 78.07971547 59.72509766 78.06866455 C53.3440787 78.05844764 46.96305602 78.05387031 40.58203125 78.04882812 C28.05467763 78.0380931 15.52734004 78.02120961 3 78 C3 78.66 3 79.32 3 80 C13.23 80 23.46 80 34 80 C34 81.66666667 34 83.33333333 34 85 C32.68 85 31.36 85 30 85 C29.67 85.66 29.34 86.32 29 87 C27.68 86.67 26.36 86.34 25 86 C25 85.01 25 84.02 25 83 C24.34 83 23.68 83 23 83 C23.33 83.99 23.66 84.98 24 86 C23.21625 85.938125 22.4325 85.87625 21.625 85.8125 C20.325625 85.9053125 20.325625 85.9053125 19 86 C18.34 86.99 17.68 87.98 17 89 C16.67 87.68 16.34 86.36 16 85 C15.01 85 14.02 85 13 85 C13 87.31 13 89.62 13 92 C13.66 92 14.32 92 15 92 C15.33 91.01 15.66 90.02 16 89 C16 89.99 16 90.98 16 92 C17.98 90.35 19.96 88.7 22 87 C22 88.65 22 90.3 22 92 C22.66 92 23.32 92 24 92 C24.33 90.68 24.66 89.36 25 88 C25 89.32 25 90.64 25 92 C25.66 92 26.32 92 27 92 C27 90.68 27 89.36 27 88 C27.66 88 28.32 88 29 88 C29 89.65 29 91.3 29 93 C29.66 93 30.32 93 31 93 C31 93.66 31 94.32 31 95 C20.77 95 10.54 95 0 95 C0 63.65 0 32.3 0 0 Z " fill="#FBFBFA" transform="translate(0,0)"/>
<path d="M0 0 C11.92621083 -0.04631192 23.85240032 -0.08186342 35.77868271 -0.10362434 C41.3163546 -0.11406775 46.85396504 -0.12823718 52.39160156 -0.15087891 C57.73432267 -0.17258732 63.0769846 -0.18456443 68.4197464 -0.18975449 C70.45952537 -0.19345383 72.49930105 -0.20067759 74.53905487 -0.21146011 C77.39297012 -0.22594835 80.24663991 -0.22797905 83.10058594 -0.22705078 C83.94647278 -0.23424133 84.79235962 -0.24143188 85.66387939 -0.24884033 C92.7429793 -0.22387528 92.7429793 -0.22387528 96 2 C96 4.18534063 95.86784156 6.32175688 95.6875 8.5 C95.62949219 9.2940625 95.57148438 10.088125 95.51171875 10.90625 C95 13 95 13 92 15 C89.18504333 15.25396729 89.18504333 15.25396729 85.72436523 15.25878906 C84.42969833 15.26509338 83.13503143 15.27139771 81.8011322 15.27789307 C80.38695134 15.27431366 78.97277171 15.27021179 77.55859375 15.265625 C76.11035599 15.2669721 74.66211866 15.26891301 73.21388245 15.27142334 C70.18006074 15.27437157 67.14635684 15.27008609 64.11254883 15.26074219 C60.21949374 15.24933755 56.32671411 15.25591527 52.43366909 15.26788712 C49.44401463 15.27510522 46.45442577 15.27281821 43.46476936 15.26763153 C42.02901235 15.26629542 40.59324942 15.26794142 39.15749931 15.27259064 C37.15374741 15.27765589 35.14997467 15.26856997 33.14624023 15.25878906 C31.43439796 15.25640228 31.43439796 15.25640228 29.68797302 15.25396729 C27 15 27 15 25 13 C24.60235737 11.01178687 24.26224651 9.01055661 24 7 C22.9171875 7.309375 22.9171875 7.309375 21.8125 7.625 C18.55358415 8.05952211 16.91695496 7.41680669 14 6 C14 7.65 14 9.3 14 11 C13.67 9.68 13.34 8.36 13 7 C11.35 7 9.7 7 8 7 C8.33 8.65 8.66 10.3 9 12 C8.01 11.67 7.02 11.34 6 11 C5.3125 8.9375 5.3125 8.9375 5 7 C2.00667261 7.9977758 1.05233685 8.7522025 -1 11 C-1.66 10.67 -2.32 10.34 -3 10 C-2.67 8.68 -2.34 7.36 -2 6 C-1.34 6 -0.68 6 0 6 C0.66 4.35 1.32 2.7 2 1 C1.34 0.67 0.68 0.34 0 0 Z " fill="#F8F8F7" transform="translate(73,80)"/>
<path d="M0 0 C66.33 0 132.66 0 201 0 C201.33 0.66 201.66 1.32 202 2 C159.1 2.33 116.2 2.66 72 3 C71.67 4.98 71.34 6.96 71 9 C70.01 9 69.02 9 68 9 C68.495 10.485 68.495 10.485 69 12 C69.66 12 70.32 12 71 12 C71.66 10.68 72.32 9.36 73 8 C74.9375 8.8125 74.9375 8.8125 77 10 C77.495 11.485 77.495 11.485 78 13 C78 11.68 78 10.36 78 9 C81.56365506 7.81211498 83.72479778 7.95997059 87.4375 8.5 C91.06062655 9.09265909 91.06062655 9.09265909 95 9 C95.99 12.96 95.99 12.96 97 17 C74.23 17 51.46 17 28 17 C28 16.34 28 15.68 28 15 C27.34 15 26.68 15 26 15 C26 13.35 26 11.7 26 10 C25.34 10 24.68 10 24 10 C24 11.32 24 12.64 24 14 C19.33333333 14 14.66666667 14 10 14 C10 11.69 10 9.38 10 7 C10.99 7 11.98 7 13 7 C13.33 7.66 13.66 8.32 14 9 C14.66 8.34 15.32 7.68 16 7 C17.32 7 18.64 7 20 7 C20 6.34 20 5.68 20 5 C20.66 5 21.32 5 22 5 C22 5.99 22 6.98 22 8 C26.455 7.505 26.455 7.505 31 7 C30.34 5.68 29.68 4.36 29 3 C19.43 2.67 9.86 2.34 0 2 C0 1.34 0 0.68 0 0 Z " fill="#E9CBCD" transform="translate(3,78)"/>
<path d="M0 0 C3.59336471 0.99815686 4.95725379 1.94825458 7.375 4.875 C9 8 9 8 8.75 10.375 C8.5025 10.91125 8.255 11.4475 8 12 C4.87709365 11.51421457 2.00419641 11.0013988 -1 10 C-1.33 12.31 -1.66 14.62 -2 17 C-2.99 17.33 -3.98 17.66 -5 18 C-5 18.66 -5 19.32 -5 20 C-6.32 20 -7.64 20 -9 20 C-9 18.02 -9 16.04 -9 14 C-9.66 16.31 -10.32 18.62 -11 21 C-9.68 21 -8.36 21 -7 21 C-7.33 22.258125 -7.66 23.51625 -8 24.8125 C-9.39682084 31.06352094 -10.04723877 37.85828368 -8 44 C-9.32 44 -10.64 44 -12 44 C-12 44.66 -12 45.32 -12 46 C-11.21625 46.0825 -10.4325 46.165 -9.625 46.25 C-7 47 -7 47 -5.6875 49.0625 C-5.3471875 50.0215625 -5.3471875 50.0215625 -5 51 C-5.66 51.66 -6.32 52.32 -7 53 C-9.625 52.625 -9.625 52.625 -12 52 C-12.33 50.68 -12.66 49.36 -13 48 C-13.99 48 -14.98 48 -16 48 C-17.35439668 45.29120665 -17.06501451 42.99066732 -17 40 C-16.34 40 -15.68 40 -15 40 C-15 39.01 -15 38.02 -15 37 C-15.66 37 -16.32 37 -17 37 C-17.66 40.3 -18.32 43.6 -19 47 C-20.98 47.495 -20.98 47.495 -23 48 C-23 44.04 -23 40.08 -23 36 C-23.66 36 -24.32 36 -25 36 C-24.7219098 27.90757513 -23.48645046 21.32965398 -20 14 C-19.34 14 -18.68 14 -18 14 C-17.90976562 13.41605469 -17.81953125 12.83210938 -17.7265625 12.23046875 C-16.34455876 7.98786586 -12.60976106 5.41930795 -9 3 C-5.125 2.1875 -5.125 2.1875 -2 2 C-1.34 1.34 -0.68 0.68 0 0 Z " fill="#D40505" transform="translate(29,5)"/>
<path d="M0 0 C0.66 0.99 1.32 1.98 2 3 C2.66 2.01 3.32 1.02 4 0 C4.66 2.31 5.32 4.62 6 7 C10.95 7 15.9 7 21 7 C21.66 5.35 22.32 3.7 23 2 C23.33 2 23.66 2 24 2 C24.495 4.475 24.495 4.475 25 7 C26.65 7 28.3 7 30 7 C30.66 4.69 31.32 2.38 32 0 C32.33 0 32.66 0 33 0 C33 3.96 33 7.92 33 12 C32.34 12 31.68 12 31 12 C31 12.66 31 13.32 31 14 C33.97 14.33 36.94 14.66 40 15 C39.67 15.66 39.34 16.32 39 17 C20.85 17 2.7 17 -16 17 C-16 17.66 -16 18.32 -16 19 C-16.99 19 -17.98 19 -19 19 C-19.33 19.66 -19.66 20.32 -20 21 C-20.2165625 19.39125 -20.2165625 19.39125 -20.4375 17.75 C-20.83749442 15.08337051 -21.27591924 12.58600271 -22 10 C-23.65 9.67 -25.3 9.34 -27 9 C-27 8.34 -27 7.68 -27 7 C-23.6477382 6.93426938 -20.54304868 6.88892186 -17.25 7.5625 C-14.84506244 8.22140353 -14.84506244 8.22140353 -12 7 C-11.175 6.896875 -10.35 6.79375 -9.5 6.6875 C-6.41706288 5.83969229 -5.63768188 4.67200728 -4 2 C-4 3.98 -4 5.96 -4 8 C-3.34 8 -2.68 8 -2 8 C-2 6.02 -2 4.04 -2 2 C-1.34 2 -0.68 2 0 2 C0 1.34 0 0.68 0 0 Z " fill="#F6F6F5" transform="translate(97,28)"/>
<path d="M0 0 C2.15625 0.421875 2.15625 0.421875 4.59375 2.671875 C7.17665816 7.21779337 7.17665816 7.21779337 8.15625 9.421875 C8.15625 7.111875 8.15625 4.801875 8.15625 2.421875 C9.80625 2.421875 11.45625 2.421875 13.15625 2.421875 C13.15625 4.071875 13.15625 5.721875 13.15625 7.421875 C16.12625 8.081875 19.09625 8.741875 22.15625 9.421875 C22.65125 11.401875 22.65125 11.401875 23.15625 13.421875 C22.16625 13.751875 21.17625 14.081875 20.15625 14.421875 C20.48625 16.071875 20.81625 17.721875 21.15625 19.421875 C13.12123906 23.50064962 13.12123906 23.50064962 9.09375 23.171875 C8.454375 22.924375 7.815 22.676875 7.15625 22.421875 C6.66125 19.946875 6.66125 19.946875 6.15625 17.421875 C2.11483806 16.78792803 -1.7502807 16.29783048 -5.84375 16.421875 C-5.84375 14.771875 -5.84375 13.121875 -5.84375 11.421875 C-7.49375 11.091875 -9.14375 10.761875 -10.84375 10.421875 C-10.23262778 3.94397942 -10.23262778 3.94397942 -8.578125 1.72265625 C-5.80619868 -0.35628849 -3.36219527 -0.10916218 0 0 Z " fill="#B51213" transform="translate(47.84375,0.578125)"/>
<path d="M0 0 C0.495 1.485 0.495 1.485 1 3 C1.99 3 2.98 3 4 3 C4 2.01 4 1.02 4 0 C5.98 0 7.96 0 10 0 C10 0.99 10 1.98 10 3 C8.125 4.0625 8.125 4.0625 6 5 C5.01 4.505 5.01 4.505 4 4 C4.41586354 8.2787981 4.41586354 8.2787981 6.5625 11.875 C7.036875 12.24625 7.51125 12.6175 8 13 C7.34 13 6.68 13 6 13 C6 13.99 6 14.98 6 16 C7.98 16.495 7.98 16.495 10 17 C7.67887212 18.16056394 6.35672375 18.12333738 3.77328491 18.12025452 C2.88704941 18.12162918 2.0008139 18.12300385 1.08772278 18.12442017 C0.11308578 18.12082489 -0.86155121 18.11722961 -1.86572266 18.11352539 C-2.89013962 18.11367142 -3.91455658 18.11381744 -4.97001648 18.1139679 C-8.3680531 18.11326926 -11.76603542 18.10547911 -15.1640625 18.09765625 C-17.51532969 18.0957919 -19.86659727 18.09436808 -22.21786499 18.09336853 C-28.41570095 18.08954471 -34.6135136 18.07971556 -40.81134033 18.06866455 C-47.13203618 18.05844753 -53.45273578 18.05387028 -59.7734375 18.04882812 C-72.18230193 18.03809319 -84.59114903 18.02101838 -97 18 C-97 17.67 -97 17.34 -97 17 C-96.01257813 16.95101562 -95.02515625 16.90203125 -94.0078125 16.8515625 C-92.72648437 16.77679688 -91.44515625 16.70203125 -90.125 16.625 C-88.21074219 16.52058594 -88.21074219 16.52058594 -86.2578125 16.4140625 C-82.91938301 16.32758894 -82.91938301 16.32758894 -81 14 C-81 13.01 -81 12.02 -81 11 C-80.01 11.66 -79.02 12.32 -78 13 C-71.75692813 15.00670167 -65.55239541 15.75010587 -59 15 C-58.34 14.34 -57.68 13.68 -57 13 C-57.66 12.34 -58.32 11.68 -59 11 C-57.35 11 -55.7 11 -54 11 C-54 11.99 -54 12.98 -54 14 C-49.4585881 14.33686543 -44.9168335 14.66887125 -40.375 15 C-39.08980469 15.09539062 -37.80460937 15.19078125 -36.48046875 15.2890625 C-35.23652344 15.37929687 -33.99257812 15.46953125 -32.7109375 15.5625 C-30.99849854 15.68818359 -30.99849854 15.68818359 -29.25146484 15.81640625 C-23.03164574 16.22391746 -23.03164574 16.22391746 -17 15 C-15.79117904 12.99983534 -15.79117904 12.99983534 -15 11 C-14.34 11 -13.68 11 -13 11 C-13.020625 10.05125 -13.04125 9.1025 -13.0625 8.125 C-13 5 -13 5 -12 3 C-11.34 3 -10.68 3 -10 3 C-10 5.64 -10 8.28 -10 11 C-8.7625 10.62875 -7.525 10.2575 -6.25 9.875 C-2.34710018 8.87851494 -2.34710018 8.87851494 0.5 9.875 C0.995 10.24625 1.49 10.6175 2 11 C2.34900558 7.28263359 2.34900558 7.28263359 0.5 4.1875 C0.005 3.795625 -0.49 3.40375 -1 3 C-0.67 2.01 -0.34 1.02 0 0 Z " fill="#F7F6F5" transform="translate(101,60)"/>
<path d="M0 0 C2.45840605 -0.02691685 4.91651882 -0.04679802 7.375 -0.0625 C8.07367188 -0.07087891 8.77234375 -0.07925781 9.4921875 -0.08789062 C14.7734375 -0.11328125 14.7734375 -0.11328125 17 1 C16.67 2.98 16.34 4.96 16 7 C15.01 7 14.02 7 13 7 C13.33 7.99 13.66 8.98 14 10 C14.66 10 15.32 10 16 10 C16.66 8.68 17.32 7.36 18 6 C19.9375 6.8125 19.9375 6.8125 22 8 C22.33 8.99 22.66 9.98 23 11 C23 9.68 23 8.36 23 7 C26.56365506 5.81211498 28.72479778 5.95997059 32.4375 6.5 C36.06062655 7.09265909 36.06062655 7.09265909 40 7 C40.66 9.64 41.32 12.28 42 15 C25.17 15 8.34 15 -9 15 C-5.86813338 11.86813338 -4.65589157 11.03850911 -0.3125 10.9375 C0.450625 10.958125 1.21375 10.97875 2 11 C2 9.35 2 7.7 2 6 C1.01 5.67 0.02 5.34 -1 5 C-0.67 3.35 -0.34 1.7 0 0 Z " fill="#C1C2BE" transform="translate(58,80)"/>
<path d="M0 0 C1.32 0 2.64 0 4 0 C4.76699219 -0.01160156 5.53398438 -0.02320313 6.32421875 -0.03515625 C7.10410156 -0.04417969 7.88398437 -0.05320313 8.6875 -0.0625 C9.47511719 -0.07410156 10.26273437 -0.08570313 11.07421875 -0.09765625 C13 0 13 0 14 1 C14.04063832 2.66617115 14.042721 4.33388095 14 6 C11.03 6 8.06 6 5 6 C5.495 7.98 5.495 7.98 6 10 C8.00032373 11.00016187 9.83125748 11.49396008 12 12 C11.375 14.4375 11.375 14.4375 10 17 C8 17.33333333 6 17.66666667 4 18 C2.54708727 20.46255685 2.54708727 20.46255685 2 23 C3.32 23.66 4.64 24.32 6 25 C-31.29 25 -68.58 25 -107 25 C-107 24.67 -107 24.34 -107 24 C-72.35 23.67 -37.7 23.34 -2 23 C-2.66 22.67 -3.32 22.34 -4 22 C-3.67 20.68 -3.34 19.36 -3 18 C-3.99 17.34 -4.98 16.68 -6 16 C-6.1875 12.875 -6.1875 12.875 -6 10 C-4.68 10.33 -3.36 10.66 -2 11 C-1.4465236 8.92446352 -1 7.15634036 -1 5 C-0.68197057 3.33034549 -0.35015049 1.66321482 0 0 Z " fill="#B37E7F" transform="translate(111,54)"/>
<path d="M0 0 C0.66 0 1.32 0 2 0 C2 0.66 2 1.32 2 2 C2.556875 1.79375 3.11375 1.5875 3.6875 1.375 C6.75455283 0.87764008 8.31742407 1.4774569 11 3 C11.8125 5.125 11.8125 5.125 12 7 C10.35 7 8.7 7 7 7 C7 7.66 7 8.32 7 9 C8.32 8.67 9.64 8.34 11 8 C11 9.32 11 10.64 11 12 C11.99 12.33 12.98 12.66 14 13 C13.67 13.66 13.34 14.32 13 15 C12.01 15 11.02 15 10 15 C10.495 15.45375 10.99 15.9075 11.5 16.375 C13 18 13 18 13 20 C12.34 20 11.68 20 11 20 C11 19.34 11 18.68 11 18 C10.01 18.33 9.02 18.66 8 19 C8 20.98 8 22.96 8 25 C9.65 24.34 11.3 23.68 13 23 C12.67 24.32 12.34 25.64 12 27 C6.47368421 27.36842105 6.47368421 27.36842105 4.3125 25.6875 C3.879375 25.130625 3.44625 24.57375 3 24 C1.50014391 22.33289654 1.50014391 22.33289654 0 21 C-0.66 21 -1.32 21 -2 21 C-2 22.98 -2 24.96 -2 27 C-2.66 27 -3.32 27 -4 27 C-5.37209302 18.76744186 -5.37209302 18.76744186 -3 15 C-3 14.01 -3 13.02 -3 12 C-3.66 11.67 -4.32 11.34 -5 11 C-5 8.69 -5 6.38 -5 4 C-5.66 4 -6.32 4 -7 4 C-7 6.31 -7 8.62 -7 11 C-7.66 11 -8.32 11 -9 11 C-9 8.03 -9 5.06 -9 2 C-7.00045254 1.95745644 -4.99958364 1.95919217 -3 2 C-1.03177114 3.96822886 -1.33751619 7.34808709 -1 10 C-1.020625 8.72125 -1.04125 7.4425 -1.0625 6.125 C-1.125 2.25 -1.125 2.25 0 0 Z " fill="#F4F3F1" transform="translate(97,9)"/>
<path d="M0 0 C13.86 0 27.72 0 42 0 C41.01 0.99 40.02 1.98 39 3 C39.495 4.485 39.495 4.485 40 6 C38.68 6 37.36 6 36 6 C36 7.98 36 9.96 36 12 C35.67 12 35.34 12 35 12 C34.505 9.525 34.505 9.525 34 7 C32.68 7.33 31.36 7.66 30 8 C30 7.34 30 6.68 30 6 C28.68 5.67 27.36 5.34 26 5 C26 7.31 26 9.62 26 12 C27.32 12.33 28.64 12.66 30 13 C29.01 13.66 28.02 14.32 27 15 C24.4345406 12.4345406 24.45953913 10.52313332 24 7 C22.9171875 7.309375 22.9171875 7.309375 21.8125 7.625 C18.55358415 8.05952211 16.91695496 7.41680669 14 6 C14 7.65 14 9.3 14 11 C13.67 9.68 13.34 8.36 13 7 C11.35 7 9.7 7 8 7 C8.33 8.65 8.66 10.3 9 12 C8.01 11.67 7.02 11.34 6 11 C5.3125 8.9375 5.3125 8.9375 5 7 C2.00667261 7.9977758 1.05233685 8.7522025 -1 11 C-1.66 10.67 -2.32 10.34 -3 10 C-2.67 8.68 -2.34 7.36 -2 6 C-1.34 6 -0.68 6 0 6 C0.66 4.35 1.32 2.7 2 1 C1.34 0.67 0.68 0.34 0 0 Z " fill="#F8F7F6" transform="translate(73,80)"/>
<path d="M0 0 C2 1 4 2 6 3 C8.87910588 3.23274209 11.74146495 3.41972757 14.625 3.5625 C15.42679688 3.60568359 16.22859375 3.64886719 17.0546875 3.69335938 C19.0362511 3.79951457 21.01810271 3.90026855 23 4 C21.63016497 7.16115776 21.0109362 7.9927092 18 10 C12.4699046 10.36867303 8.23674055 9.74558018 3 8 C3 8.66 3 9.32 3 10 C8.94 10.99 8.94 10.99 15 12 C15 12.99 15 13.98 15 15 C9.79604282 17.60197859 2.48404047 16.40779702 -2.875 14.6875 C-6.13927064 13.44508461 -9.17962928 12.09253311 -12 10 C-12 9.34 -12 8.68 -12 8 C-11.38511719 7.92523438 -10.77023438 7.85046875 -10.13671875 7.7734375 C-7.62524452 7.36487231 -5.37891772 6.91107487 -3 6 C-0.85334283 3.04765553 -0.85334283 3.04765553 0 0 Z " fill="#C30C0E" transform="translate(29,60)"/>
<path d="M0 0 C0 0.66 0 1.32 0 2 C-0.99 2.33 -1.98 2.66 -3 3 C-3.33 3.99 -3.66 4.98 -4 6 C-2.35 6 -0.7 6 1 6 C1.66 4.68 2.32 3.36 3 2 C3.99 2 4.98 2 6 2 C6 2.66 6 3.32 6 4 C5.01 4 4.02 4 3 4 C3 4.66 3 5.32 3 6 C5.46844245 6.7138986 5.46844245 6.7138986 8 7 C8.33 5.35 8.66 3.7 9 2 C10.32 2.33 11.64 2.66 13 3 C13.70074844 6.153368 14 8.72724974 14 12 C14.66 12.66 15.32 13.32 16 14 C15.625 16.625 15.625 16.625 15 19 C14.319375 18.814375 13.63875 18.62875 12.9375 18.4375 C9.42767809 17.91476057 6.47811937 18.38621423 3 19 C3 16.36 3 13.72 3 11 C1.0549 13.91765 0.54723683 15.62537285 0 19 C-1.65 19 -3.3 19 -5 19 C-5.33 18.01 -5.66 17.02 -6 16 C-4.68 16.33 -3.36 16.66 -2 17 C-2 16.01 -2 15.02 -2 14 C-2.99 13.67 -3.98 13.34 -5 13 C-3.68 11.68 -2.36 10.36 -1 9 C-2.65 8.01 -4.3 7.02 -6 6 C-5.625 3.5625 -5.625 3.5625 -5 1 C-3 0 -3 0 0 0 Z " fill="#82807E" transform="translate(88,52)"/>
<path d="M0 0 C3.59336471 0.99815686 4.95725379 1.94825458 7.375 4.875 C9 8 9 8 8.75 10.375 C8.5025 10.91125 8.255 11.4475 8 12 C4.87709365 11.51421457 2.00419641 11.0013988 -1 10 C-1.33 12.31 -1.66 14.62 -2 17 C-3.65 17.66 -5.3 18.32 -7 19 C-7 16.69 -7 14.38 -7 12 C-10.3 12.33 -13.6 12.66 -17 13 C-15.71607089 7.86428354 -13.4072397 5.79038253 -9 3 C-5.1875 2.25 -5.1875 2.25 -2 2 C-1.34 1.34 -0.68 0.68 0 0 Z " fill="#030459" transform="translate(29,5)"/>
<path d="M0 0 C0.33 0.66 0.66 1.32 1 2 C1.66 1.67 2.32 1.34 3 1 C5.6723621 0.86584528 8.32250488 0.95681459 11 1 C11 3.31 11 5.62 11 8 C11.66 8.33 12.32 8.66 13 9 C11.68 9 10.36 9 9 9 C9 7.02 9 5.04 9 3 C8.84144531 3.59167969 8.68289062 4.18335938 8.51953125 4.79296875 C6.91529601 10.22609693 5.21825342 13.09039927 1 17 C0.27692132 18.22976155 -0.41016841 19.4812921 -1.0625 20.75 C-3 24 -3 24 -5.12109375 24.703125 C-6.05115234 24.85007812 -6.05115234 24.85007812 -7 25 C-6.7219098 16.90757513 -5.48645046 10.32965398 -2 3 C-1.34 3 -0.68 3 0 3 C0 2.01 0 1.02 0 0 Z " fill="#E5E6E2" transform="translate(11,16)"/>
<path d="M0 0 C1.9375 0.8125 1.9375 0.8125 4 2 C4.33 2.99 4.66 3.98 5 5 C5 3.68 5 2.36 5 1 C8.56365506 -0.18788502 10.72479778 -0.04002941 14.4375 0.5 C18.06062655 1.09265909 18.06062655 1.09265909 22 1 C22.66 3.64 23.32 6.28 24 9 C14.43 9 4.86 9 -5 9 C-4.67 7.35 -4.34 5.7 -4 4 C-3.34 4 -2.68 4 -2 4 C-1.34 2.68 -0.68 1.36 0 0 Z " fill="#EAEAE4" transform="translate(76,86)"/>
<path d="M0 0 C4 1.33333333 8 2.66666667 12 4 C13.8514445 4.11829437 15.70732138 4.17514861 17.5625 4.1875 C19.01849609 4.20876953 19.01849609 4.20876953 20.50390625 4.23046875 C23.17398916 4.25207746 23.17398916 4.25207746 25 2 C24.34 1.34 23.68 0.68 23 0 C24.65 0 26.3 0 28 0 C28 0.99 28 1.98 28 3 C46.315 4.485 46.315 4.485 65 6 C65 6.33 65 6.66 65 7 C38.6 7 12.2 7 -15 7 C-15 6.67 -15 6.34 -15 6 C-14.01257813 5.95101562 -13.02515625 5.90203125 -12.0078125 5.8515625 C-10.72648438 5.77679688 -9.44515625 5.70203125 -8.125 5.625 C-6.21074219 5.52058594 -6.21074219 5.52058594 -4.2578125 5.4140625 C-0.91938301 5.32758894 -0.91938301 5.32758894 1 3 C0.67 2.01 0.34 1.02 0 0 Z " fill="#EADEDB" transform="translate(19,71)"/>
<path d="M0 0 C0.33 0 0.66 0 1 0 C1 3.96 1 7.92 1 12 C0.34 12 -0.32 12 -1 12 C-0.67 13.32 -0.34 14.64 0 16 C-2.91691525 16.05401695 -5.83282724 16.09368066 -8.75 16.125 C-9.575 16.14175781 -10.4 16.15851562 -11.25 16.17578125 C-12.04921875 16.18222656 -12.8484375 16.18867187 -13.671875 16.1953125 C-14.4050293 16.20578613 -15.13818359 16.21625977 -15.89355469 16.22705078 C-18.29896076 15.96777544 -19.91251494 15.19225925 -22 14 C-21 11.0625 -21 11.0625 -19 8 C-16.24121075 7.13481757 -13.93007574 7.09606806 -11 7 C-10.34 5.35 -9.68 3.7 -9 2 C-8.67 2 -8.34 2 -8 2 C-7.67 3.65 -7.34 5.3 -7 7 C-5.35 7 -3.7 7 -2 7 C-1.34 4.69 -0.68 2.38 0 0 Z " fill="#F0EFED" transform="translate(129,28)"/>
<path d="M0 0 C0.99 0.66 1.98 1.32 3 2 C3 2.99 3 3.98 3 5 C2.01 5.33 1.02 5.66 0 6 C0.33 7.65 0.66 9.3 1 11 C-7.03501094 15.07877462 -7.03501094 15.07877462 -11.0625 14.75 C-11.701875 14.5025 -12.34125 14.255 -13 14 C-13.75 11.875 -13.75 11.875 -14 9 C-12.25 5.875 -12.25 5.875 -10 3 C-9.566875 2.38125 -9.13375 1.7625 -8.6875 1.125 C-5.86887672 -0.75408219 -3.27404021 -0.29232502 0 0 Z " fill="#091209" transform="translate(68,9)"/>
<path d="M0 0 C0.33 0 0.66 0 1 0 C1 2.97 1 5.94 1 9 C2.60875 8.2884375 2.60875 8.2884375 4.25 7.5625 C6.80839865 6.46233668 9.25835017 5.54832997 12 5 C10.42488225 10.01173829 7.65794114 13.29634169 3.2265625 16.13671875 C0.30626771 17.2689734 -2.12834956 17.19286197 -5.25 17.125 C-6.32765625 17.10695313 -7.4053125 17.08890625 -8.515625 17.0703125 C-9.33546875 17.04710938 -10.1553125 17.02390625 -11 17 C-11.33 16.01 -11.66 15.02 -12 14 C-10.948125 13.54625 -9.89625 13.0925 -8.8125 12.625 C-3.80152456 9.83433482 -2.115641 5.1087368 0 0 Z " fill="#03031A" transform="translate(60,58)"/>
<path d="M0 0 C0.556875 0.309375 1.11375 0.61875 1.6875 0.9375 C6.07042469 2.95127621 9.33293172 3.20010327 14 2 C14 1.34 14 0.68 14 0 C14.66 0 15.32 0 16 0 C16.33 0.99 16.66 1.98 17 3 C19.475 3.495 19.475 3.495 22 4 C21.75 6.375 21.75 6.375 21 9 C17.44319517 11.63203558 13.475198 11.22883284 9.25 11.125 C8.55261719 11.11597656 7.85523437 11.10695313 7.13671875 11.09765625 C5.42433042 11.07419888 3.71211996 11.03833104 2 11 C2.33 10.34 2.66 9.68 3 9 C2.01 8.67 1.02 8.34 0 8 C-0.38063221 5.6739143 -0.71269945 3.33944736 -1 1 C-0.67 0.67 -0.34 0.34 0 0 Z " fill="#CBCDC3" transform="translate(99,84)"/>
<path d="M0 0 C0.7425 0.185625 1.485 0.37125 2.25 0.5625 C4.94990963 0.99203108 6.44631077 0.85122974 9 0 C9.80967438 2.91482778 10.21845993 4.46113217 9.0625 7.3125 C8.711875 7.869375 8.36125 8.42625 8 9 C8.66 9 9.32 9 10 9 C10 11.64 10 14.28 10 17 C9.34 17 8.68 17 8 17 C8 15.68 8 14.36 8 13 C7.34 13 6.68 13 6 13 C6 14.32 6 15.64 6 17 C3.36 17 0.72 17 -2 17 C-2.33 15.35 -2.66 13.7 -3 12 C-2.01 11.67 -1.02 11.34 0 11 C0.91428339 9.09291157 0.91428339 9.09291157 1 7 C0.34 6.34 -0.32 5.68 -1 5 C-0.625 2.375 -0.625 2.375 0 0 Z " fill="#E4E4E1" transform="translate(140,54)"/>
<path d="M0 0 C1.32 0 2.64 0 4 0 C4.76699219 -0.01160156 5.53398438 -0.02320313 6.32421875 -0.03515625 C7.10410156 -0.04417969 7.88398437 -0.05320313 8.6875 -0.0625 C9.47511719 -0.07410156 10.26273438 -0.08570313 11.07421875 -0.09765625 C13 0 13 0 14 1 C14.04063832 2.66617115 14.042721 4.33388095 14 6 C11.03 6 8.06 6 5 6 C5.33 7.32 5.66 8.64 6 10 C8.00032373 11.00016187 9.83125748 11.49396008 12 12 C11.34 13.65 10.68 15.3 10 17 C8.02 17 6.04 17 4 17 C2.5393715 14.35261084 2 13.10551666 2 10 C1.34 9.34 0.68 8.68 0 8 C-0.6875 4.4375 -0.6875 4.4375 -1 1 C-0.67 0.67 -0.34 0.34 0 0 Z " fill="#E1E0DE" transform="translate(111,54)"/>
<path d="M0 0 C0.66022156 0.0028299 1.32044312 0.00565979 2.00067139 0.00857544 C4.09959397 0.01972835 6.19808242 0.04482304 8.296875 0.0703125 C9.72395215 0.08034866 11.15103602 0.0894734 12.578125 0.09765625 C16.06784828 0.11965139 19.55731923 0.15414714 23.046875 0.1953125 C21.79710744 3.84847921 21.37588747 4.97597086 18.046875 7.1953125 C18.046875 5.8753125 18.046875 4.5553125 18.046875 3.1953125 C16.396875 3.1953125 14.746875 3.1953125 13.046875 3.1953125 C13.376875 5.5053125 13.706875 7.8153125 14.046875 10.1953125 C13.056875 10.6903125 13.056875 10.6903125 12.046875 11.1953125 C11.63115234 10.34646484 11.63115234 10.34646484 11.20703125 9.48046875 C10.84480469 8.74699219 10.48257813 8.01351563 10.109375 7.2578125 C9.74972656 6.52691406 9.39007813 5.79601562 9.01953125 5.04296875 C8.18315673 3.23282223 8.18315673 3.23282223 7.046875 2.1953125 C4.01272082 1.82662046 1.07863118 1.80129365 -1.953125 2.1953125 C-4.92612041 4.70377738 -5.42898358 7.42149431 -5.953125 11.1953125 C-9.2073265 8.36100797 -10.4738003 6.50923476 -10.953125 2.1953125 C-7.31095805 -0.10291075 -4.24487493 -0.03597352 0 0 Z " fill="#EDEAE8" transform="translate(42.953125,-0.1953125)"/>
<path d="M0 0 C0.99 0.33 1.98 0.66 3 1 C3 3.97 3 6.94 3 10 C3.66 10 4.32 10 5 10 C5 8.68 5 7.36 5 6 C6.32 5.67 7.64 5.34 9 5 C9.12375 6.175625 9.12375 6.175625 9.25 7.375 C9.72806339 10.14749104 9.72806339 10.14749104 12.0625 11.3125 C12.701875 11.539375 13.34125 11.76625 14 12 C11.49502996 13.25248502 9.79146726 13.11374406 6.9921875 13.09765625 C6.00605469 13.09443359 5.01992187 13.09121094 4.00390625 13.08789062 C2.97136719 13.07951172 1.93882813 13.07113281 0.875 13.0625 C-0.68541016 13.05573242 -0.68541016 13.05573242 -2.27734375 13.04882812 C-4.85161962 13.03701952 -7.42578146 13.02055075 -10 13 C-7.94766315 10.7522025 -6.99332739 9.9977758 -4 9 C-2.33378384 8.96125079 -0.66605828 8.9549714 1 9 C1 7.35 1 5.7 1 4 C0.01 3.67 -0.98 3.34 -2 3 C-1.34 2.01 -0.68 1.02 0 0 Z " fill="#F8F8F4" transform="translate(59,82)"/>
<path d="M0 0 C3.3522618 -0.06573062 6.45695132 -0.11107814 9.75 0.5625 C12.15493756 1.22140353 12.15493756 1.22140353 15 0 C15.99 0.66 16.98 1.32 18 2 C17.525625 2.433125 17.05125 2.86625 16.5625 3.3125 C14.76313043 5.02309613 14.76313043 5.02309613 14 8 C14.99 8.66 15.98 9.32 17 10 C15.02 10 13.04 10 11 10 C11 10.66 11 11.32 11 12 C10.01 12 9.02 12 8 12 C7.67 12.66 7.34 13.32 7 14 C6.855625 12.9275 6.71125 11.855 6.5625 10.75 C6.16250558 8.08337051 5.72408076 5.58600271 5 3 C3.35 2.67 1.7 2.34 0 2 C0 1.34 0 0.68 0 0 Z " fill="#EEEEE9" transform="translate(70,35)"/>
<path d="M0 0 C0.33 0.66 0.66 1.32 1 2 C3.02463255 2.65213292 3.02463255 2.65213292 5 3 C4.979375 3.7425 4.95875 4.485 4.9375 5.25 C4.85897542 7.91883497 4.85897542 7.91883497 5.6875 10 C6.15911681 13.0183476 4.68235019 14.57741572 3 17 C0 16 0 16 -2 15 C-1.67 13.68 -1.34 12.36 -1 11 C-1.99 10.34 -2.98 9.68 -4 9 C-4.1875 5.875 -4.1875 5.875 -4 3 C-2.68 3.33 -1.36 3.66 0 4 C0 2.68 0 1.36 0 0 Z " fill="#F4F2F1" transform="translate(109,61)"/>
<path d="M0 0 C1.32 0.33 2.64 0.66 4 1 C4.70074844 4.153368 5 6.72724974 5 10 C5.66 10.66 6.32 11.32 7 12 C6.625 14.625 6.625 14.625 6 17 C4.02 16.67 2.04 16.34 0 16 C-0.33 13.36 -0.66 10.72 -1 8 C-2.65 8 -4.3 8 -6 8 C-6.33 7.34 -6.66 6.68 -7 6 C-2.125 5 -2.125 5 -1 5 C-0.67 3.35 -0.34 1.7 0 0 Z " fill="#F4F5F1" transform="translate(97,54)"/>
<path d="M0 0 C3.59336471 0.99815686 4.95725379 1.94825458 7.375 4.875 C9 8 9 8 8.75 10.375 C8.5025 10.91125 8.255 11.4475 8 12 C5.525 11.505 5.525 11.505 3 11 C3 10.34 3 9.68 3 9 C1.68 9 0.36 9 -1 9 C-1 8.34 -1 7.68 -1 7 C-0.01 7 0.98 7 2 7 C2 6.34 2 5.68 2 5 C-4.435 5.495 -4.435 5.495 -11 6 C-10.34 5.01 -9.68 4.02 -9 3 C-6.67284 2.62599214 -4.33882138 2.29235267 -2 2 C-1.34 1.34 -0.68 0.68 0 0 Z " fill="#020121" transform="translate(29,5)"/>
<path d="M0 0 C0.99 0.33 1.98 0.66 3 1 C3.33 2.65 3.66 4.3 4 6 C10.435 5.505 10.435 5.505 17 5 C16 10 16 10 15 11 C13.04577134 11.15167148 11.08490271 11.22179996 9.125 11.25 C7.52011719 11.28867188 7.52011719 11.28867188 5.8828125 11.328125 C3 11 3 11 1.1640625 9.7109375 C-0.69064549 6.98489019 -0.76097159 4.22688348 -1 1 C-0.67 0.67 -0.34 0.34 0 0 Z " fill="#161F12" transform="translate(10,54)"/>
<path d="M0 0 C1.65 0 3.3 0 5 0 C5.33 0.66 5.66 1.32 6 2 C8.02463255 2.65213292 8.02463255 2.65213292 10 3 C10 4.98 10 6.96 10 9 C8.04196493 9.05389087 6.08351091 9.09274217 4.125 9.125 C3.03445312 9.14820312 1.94390625 9.17140625 0.8203125 9.1953125 C-2 9 -2 9 -4 7 C-3.625 4.875 -3.625 4.875 -3 3 C-2.01 3 -1.02 3 0 3 C0 2.01 0 1.02 0 0 Z " fill="#E1E4D3" transform="translate(185,84)"/>
<path d="M0 0 C0 0.66 0 1.32 0 2 C1.32 2.33 2.64 2.66 4 3 C4.33 5.97 4.66 8.94 5 12 C4.01 11.01 3.02 10.02 2 9 C2 8.01 2 7.02 2 6 C-0.31 5.67 -2.62 5.34 -5 5 C-5 6.98 -5 8.96 -5 11 C-6.65 10.67 -8.3 10.34 -10 10 C-9.40140845 3.65492958 -9.40140845 3.65492958 -7.8125 1.0625 C-5.19357381 -0.47273259 -2.97085195 -0.1980568 0 0 Z " fill="#DA0203" transform="translate(47,1)"/>
<path d="M0 0 C3.73495376 0 6.76617508 0.06399489 9.8125 2.375 C11 4 11 4 11 7 C4.5 11 4.5 11 0 11 C-0.19406478 9.35492782 -0.38007935 7.70890406 -0.5625 6.0625 C-0.66691406 5.14597656 -0.77132812 4.22945312 -0.87890625 3.28515625 C-0.91886719 2.53105469 -0.95882812 1.77695312 -1 1 C-0.67 0.67 -0.34 0.34 0 0 Z " fill="#C5D6DD" transform="translate(61,56)"/>
<path d="M0 0 C0.66 0 1.32 0 2 0 C2 0.99 2 1.98 2 3 C3.65 3.33 5.3 3.66 7 4 C7.33 5.65 7.66 7.3 8 9 C7.34 9 6.68 9 6 9 C6 7.68 6 6.36 6 5 C5.34 5 4.68 5 4 5 C4 6.32 4 7.64 4 9 C-0.66666667 9 -5.33333333 9 -10 9 C-10 6.69 -10 4.38 -10 2 C-9.01 2 -8.02 2 -7 2 C-6.67 2.66 -6.34 3.32 -6 4 C-5.34 3.34 -4.68 2.68 -4 2 C-2.68 2 -1.36 2 0 2 C0 1.34 0 0.68 0 0 Z " fill="#84877E" transform="translate(23,83)"/>
<path d="M0 0 C2.5625 0.1875 2.5625 0.1875 4.5625 2.1875 C4.828125 4.0625 4.828125 4.0625 4.8125 6.1875 C4.81765625 6.88875 4.8228125 7.59 4.828125 8.3125 C4.5625 10.1875 4.5625 10.1875 2.5625 12.1875 C-0 12.375 -0 12.375 -2.4375 12.1875 C-3.4375 11.1875 -3.4375 11.1875 -3.5703125 8.9375 C-3.56773438 8.03 -3.56515625 7.1225 -3.5625 6.1875 C-3.56507812 5.28 -3.56765625 4.3725 -3.5703125 3.4375 C-3.38424141 0.28523683 -3.15680703 0.24283131 0 0 Z " fill="#303A28" transform="translate(51.4375,32.8125)"/>
<path d="M0 0 C0.33 0.66 0.66 1.32 1 2 C1.804375 1.979375 2.60875 1.95875 3.4375 1.9375 C6 2 6 2 7 3 C7.04092937 5.33297433 7.04241723 7.66705225 7 10 C5.35 10.33 3.7 10.66 2 11 C0.68 9.35 -0.64 7.7 -2 6 C-2.33 7.32 -2.66 8.64 -3 10 C-3.66 10 -4.32 10 -5 10 C-5 7.36 -5 4.72 -5 2 C-3.35 1.34 -1.7 0.68 0 0 Z " fill="#343231" transform="translate(152,26)"/>
<path d="M0 0 C0.4125 0.66 0.825 1.32 1.25 2 C1.8275 2.66 2.405 3.32 3 4 C4.32 4 5.64 4 7 4 C7 4.66 7 5.32 7 6 C5.68 6 4.36 6 3 6 C3 6.66 3 7.32 3 8 C3.78375 8.0825 4.5675 8.165 5.375 8.25 C8 9 8 9 9.3125 11.0625 C9.539375 11.701875 9.76625 12.34125 10 13 C9.34 13.66 8.68 14.32 8 15 C5.375 14.625 5.375 14.625 3 14 C2.67 12.68 2.34 11.36 2 10 C1.01 10 0.02 10 -1 10 C-2.35439668 7.29120665 -2.06501451 4.99066732 -2 2 C-1.34 2 -0.68 2 0 2 C0 1.34 0 0.68 0 0 Z " fill="#D3BABB" transform="translate(14,43)"/>
<path d="M0 0 C1.65 0 3.3 0 5 0 C5 0.99 5 1.98 5 3 C18.86 3.99 18.86 3.99 33 5 C33 5.33 33 5.66 33 6 C17.82 6 2.64 6 -13 6 C-13 5.67 -13 5.34 -13 5 C-12.08476562 4.95101562 -11.16953125 4.90203125 -10.2265625 4.8515625 C-9.03804687 4.77679688 -7.84953125 4.70203125 -6.625 4.625 C-5.44164062 4.55539063 -4.25828125 4.48578125 -3.0390625 4.4140625 C0.10562319 4.29782654 0.10562319 4.29782654 2 2 C1.34 1.34 0.68 0.68 0 0 Z " fill="#F5F6F7" transform="translate(42,71)"/>
<path d="M0 0 C0.66 0 1.32 0 2 0 C2 0.99 2 1.98 2 3 C1.34 3 0.68 3 0 3 C0.33 5.64 0.66 8.28 1 11 C1.99 11 2.98 11 4 11 C4.165 11.639375 4.33 12.27875 4.5 12.9375 C5.781786 15.16119241 5.781786 15.16119241 7.9140625 15.48828125 C9.93575155 15.7275978 11.96841939 15.86893028 14 16 C10.17482487 18.39073445 6.40334476 18.55966552 2 19 C1.34 17.02 0.68 15.04 0 13 C-1.65 12.67 -3.3 12.34 -5 12 C-4.34 11.34 -3.68 10.68 -3 10 C-2.36233239 8.09999642 -2.36233239 8.09999642 -1.9375 6 C-1.44544792 3.78779893 -1.01674863 2.03349727 0 0 Z " fill="#EAEEEA" transform="translate(12,42)"/>
<path d="M0 0 C0 0.66 0 1.32 0 2 C-3.46735842 3.73367921 -7.20912664 3.47624037 -11 3 C-13.49102993 1.9338594 -14.91933034 0.81391714 -17 -1 C-17 -1.66 -17 -2.32 -17 -3 C-10.11236728 -4.2154646 -5.79371167 -4.13836548 0 0 Z " fill="#E80102" transform="translate(34,71)"/>
<path d="M0 0 C0 2.31 0 4.62 0 7 C-2 6 -2 6 -3 3 C-3.33 4.98 -3.66 6.96 -4 9 C-7.3125 9.25 -7.3125 9.25 -11 9 C-13 7.25 -13 7.25 -14 5 C-13.6875 2.75 -13.6875 2.75 -13 1 C-12.13375 1.2784375 -12.13375 1.2784375 -11.25 1.5625 C-7.10957179 2.36758326 -4.07672693 0 0 0 Z " fill="#F1F3EA" transform="translate(155,86)"/>
<path d="M0 0 C0.66 0.33 1.32 0.66 2 1 C-4.4767577 7.83657757 -4.4767577 7.83657757 -10.015625 8.1953125 C-11.08296875 8.17210938 -12.1503125 8.14890625 -13.25 8.125 C-14.32765625 8.10695313 -15.4053125 8.08890625 -16.515625 8.0703125 C-17.33546875 8.04710938 -18.1553125 8.02390625 -19 8 C-19.33 7.01 -19.66 6.02 -20 5 C-17.69 4.01 -15.38 3.02 -13 2 C-12.67 2.66 -12.34 3.32 -12 4 C-7.75519536 4.33292585 -5.64457375 4.43885872 -2.0625 2 C-1.381875 1.34 -0.70125 0.68 0 0 Z " fill="#14192B" transform="translate(68,67)"/>
<path d="M0 0 C0.33 0 0.66 0 1 0 C1.25002209 1.74714233 1.47423194 3.49799141 1.6875 5.25 C1.81511719 6.22453125 1.94273438 7.1990625 2.07421875 8.203125 C1.98555374 11.54439599 1.1414871 12.52259335 -1 15 C-1.72351427 16.98014432 -2.40265389 18.97821315 -3 21 C-3.66 21 -4.32 21 -5 21 C-4.73510924 13.172478 -3.75854433 6.92271421 0 0 Z " fill="#121E12" transform="translate(9,20)"/>
<path d="M0 0 C1.134375 0.020625 2.26875 0.04125 3.4375 0.0625 C2.4475 0.7225 1.4575 1.3825 0.4375 2.0625 C0.7675 3.7125 1.0975 5.3625 1.4375 7.0625 C0.0278653 7.76430531 -1.39057641 8.44843958 -2.8125 9.125 C-3.60140625 9.50785156 -4.3903125 9.89070313 -5.203125 10.28515625 C-7.82243522 11.14814091 -9.01105176 10.99295933 -11.5625 10.0625 C-10.964375 9.505625 -10.36625 8.94875 -9.75 8.375 C-7.57324085 6.07385462 -6.11992513 3.80653476 -4.5625 1.0625 C-3.5625 0.0625 -3.5625 0.0625 0 0 Z " fill="#D1D5BE" transform="translate(67.5625,12.9375)"/>
<path d="M0 0 C0.66 0.33 1.32 0.66 2 1 C1.67 1.33 1.34 1.66 1 2 C1.763125 1.95875 2.52625 1.9175 3.3125 1.875 C6 2 6 2 9 4 C9 4.99 9 5.98 9 7 C9.66 7 10.32 7 11 7 C10.67 5.02 10.34 3.04 10 1 C11.5625 2.125 11.5625 2.125 13 4 C13 7.0625 13 7.0625 12 10 C9.4375 11.375 9.4375 11.375 7 12 C7 9.69 7 7.38 7 5 C3.7 5.33 0.4 5.66 -3 6 C-2 2 -2 2 0 0 Z " fill="#050513" transform="translate(15,12)"/>
<path d="M0 0 C4 1 4 1 6.25 3.875 C8 7 8 7 8 10 C5.36 10.33 2.72 10.66 0 11 C0 7.37 0 3.74 0 0 Z " fill="#EAC8CC" transform="translate(42,6)"/>
<path d="M0 0 C0 3.54062291 -1.24349121 5.26333531 -3.125 8.18359375 C-4.28932691 10.26458271 -4.28932691 10.26458271 -4 14 C-3.34 14.33 -2.68 14.66 -2 15 C-2.99 17.97 -3.98 20.94 -5 24 C-5.99 24 -6.98 24 -8 24 C-8.92636875 15.13087701 -7.00023459 9.34490418 -2 2 C-1.34 1.34 -0.68 0.68 0 0 Z " fill="#B71417" transform="translate(14,29)"/>
<path d="M0 0 C2.64 0 5.28 0 8 0 C8 0.66 8 1.32 8 2 C6.35 2 4.7 2 3 2 C3 2.66 3 3.32 3 4 C4.65 4.33 6.3 4.66 8 5 C8.125 7.375 8.125 7.375 8 10 C6 12 6 12 3.375 12.125 C2.59125 12.08375 1.8075 12.0425 1 12 C0.67 11.01 0.34 10.02 0 9 C2.475 9.495 2.475 9.495 5 10 C5 8.68 5 7.36 5 6 C3.35 6 1.7 6 0 6 C0 4.02 0 2.04 0 0 Z " fill="#20281F" transform="translate(67,33)"/>
<path d="M0 0 C0.99 0.33 1.98 0.66 3 1 C3 1.66 3 2.32 3 3 C3.99 3.33 4.98 3.66 6 4 C6 5.32 6 6.64 6 8 C6.66 8 7.32 8 8 8 C8.33 6.35 8.66 4.7 9 3 C9.93065133 5.60582371 10.14917407 6.64198224 9.0625 9.25 C8.711875 9.8275 8.36125 10.405 8 11 C7.34 11 6.68 11 6 11 C5.34 9.35 4.68 7.7 4 6 C3.67 8.31 3.34 10.62 3 13 C2.01 12.67 1.02 12.34 0 12 C0 8.04 0 4.08 0 0 Z " fill="#52514E" transform="translate(166,25)"/>
<path d="M0 0 C2.31 0.33 4.62 0.66 7 1 C7 2.98 7 4.96 7 7 C5.35 7.33 3.7 7.66 2 8 C2 9.32 2 10.64 2 12 C1.34 12 0.68 12 0 12 C0 8.04 0 4.08 0 0 Z " fill="#212120" transform="translate(130,28)"/>
<path d="M0 0 C0.99 0.33 1.98 0.66 3 1 C4.03131735 3.60862624 4.43057449 6.24047635 5 9 C1.37 9 -2.26 9 -6 9 C-6 8.01 -6 7.02 -6 6 C-5.01 6 -4.02 6 -3 6 C-3 4.68 -3 3.36 -3 2 C-2.01 1.34 -1.02 0.68 0 0 Z " fill="#E3E6DB" transform="translate(95,86)"/>
<path d="M0 0 C1.98 0 3.96 0 6 0 C6.6875 2.25 6.6875 2.25 7 5 C5.5625 7.3125 5.5625 7.3125 4 9 C4.99 9.33 5.98 9.66 7 10 C7 10.66 7 11.32 7 12 C4.36 12 1.72 12 -1 12 C0.66666667 8.66666667 2.33333333 5.33333333 4 2 C3.34 2 2.68 2 2 2 C2 2.66 2 3.32 2 4 C1.01 4 0.02 4 -1 4 C-0.67 2.68 -0.34 1.36 0 0 Z " fill="#151C0A" transform="translate(58,33)"/>
<path d="M0 0 C1.98 0 3.96 0 6 0 C6.625 2.3125 6.625 2.3125 7 5 C6.01 6.485 6.01 6.485 5 8 C4.34 8 3.68 8 3 8 C3 8.66 3 9.32 3 10 C4.32 10 5.64 10 7 10 C7 10.66 7 11.32 7 12 C4.36 12 1.72 12 -1 12 C-1 11.01 -1 10.02 -1 9 C-0.34 9 0.32 9 1 9 C2.20628008 6.66785852 3.1654738 4.50357861 4 2 C2.35 2.66 0.7 3.32 -1 4 C-0.67 2.68 -0.34 1.36 0 0 Z " fill="#21281B" transform="translate(39,33)"/>
<path d="M0 0 C1.875 0.6875 1.875 0.6875 2.875 1.6875 C3.0625 4.125 3.0625 4.125 2.875 6.6875 C2.215 7.3475 1.555 8.0075 0.875 8.6875 C-3.68055556 8.13194444 -3.68055556 8.13194444 -5.125 6.6875 C-5.375 4.25 -5.375 4.25 -5.125 1.6875 C-2.125 -0.3125 -2.125 -0.3125 0 0 Z " fill="#2C2B2A" transform="translate(146.125,11.3125)"/>
<path d="M0 0 C0.66 0 1.32 0 2 0 C2.66 1.98 3.32 3.96 4 6 C-0.75 9 -0.75 9 -3 9 C-3.33 9.66 -3.66 10.32 -4 11 C-4 10.01 -4 9.02 -4 8 C-4.58007812 8.09539062 -5.16015625 8.19078125 -5.7578125 8.2890625 C-10.76088419 8.99906937 -14.24022962 9.07477171 -19 7 C-19 6.34 -19 5.68 -19 5 C-17.515 5.2475 -17.515 5.2475 -16 5.5 C-8.5580462 6.62824958 -8.5580462 6.62824958 -1.5 4.6875 C0.33218192 3.00259517 0.33218192 3.00259517 0 0 Z " fill="#D8CDD0" transform="translate(51,63)"/>
<path d="M0 0 C3.63 0.66 7.26 1.32 11 2 C11 2.99 11 3.98 11 5 C8.41246844 6.29376578 6.45041015 6.16832397 3.5625 6.1875 C2.59441406 6.20167969 1.62632813 6.21585937 0.62890625 6.23046875 C-2 6 -2 6 -5 4 C-3.02 3.67 -1.04 3.34 1 3 C0.67 2.01 0.34 1.02 0 0 Z " fill="#D8262D" transform="translate(33,70)"/>
<path d="M0 0 C0.556875 0.309375 1.11375 0.61875 1.6875 0.9375 C4.12540433 2.05761821 6.36224186 2.56037364 9 3 C9 4.65 9 6.3 9 8 C6.03 8 3.06 8 0 8 C-0.38063221 5.6739143 -0.71269945 3.33944736 -1 1 C-0.67 0.67 -0.34 0.34 0 0 Z " fill="#B9BBB3" transform="translate(99,84)"/>
<path d="M0 0 C3.63 0 7.26 0 11 0 C11 0.66 11 1.32 11 2 C11.99 2 12.98 2 14 2 C14 5.3 14 8.6 14 12 C13.34 11.67 12.68 11.34 12 11 C12.33 8.36 12.66 5.72 13 3 C12.34 3 11.68 3 11 3 C11 3.66 11 4.32 11 5 C9.02 5.99 9.02 5.99 7 7 C7 5.68 7 4.36 7 3 C6.01 3.33 5.02 3.66 4 4 C2.68 2.68 1.36 1.36 0 0 Z " fill="#F1F3F3" transform="translate(166,49)"/>
<path d="M0 0 C2.64 0 5.28 0 8 0 C8.33 0.99 8.66 1.98 9 3 C9.66 3 10.32 3 11 3 C11.33 2.34 11.66 1.68 12 1 C11.6875 3.875 11.6875 3.875 11 7 C10.01 7.66 9.02 8.32 8 9 C8 6.69 8 4.38 8 2 C7.01 2 6.02 2 5 2 C5 3.32 5 4.64 5 6 C3.35 6 1.7 6 0 6 C0 4.02 0 2.04 0 0 Z " fill="#4C5145" transform="translate(40,86)"/>
<path d="M0 0 C0.66 0 1.32 0 2 0 C2.33 0.99 2.66 1.98 3 3 C3.99 2.67 4.98 2.34 6 2 C6 1.34 6 0.68 6 0 C6.66 0 7.32 0 8 0 C8 2.64 8 5.28 8 8 C5.36 8 2.72 8 0 8 C0 5.36 0 2.72 0 0 Z " fill="#414141" transform="translate(171,52)"/>
<path d="M0 0 C2.5 0.125 2.5 0.125 3.5 1.125 C3.625 4.125 3.625 4.125 3.5 7.125 C2.5 8.125 2.5 8.125 0 8.25 C-2.5 8.125 -2.5 8.125 -3.5 7.125 C-3.625 4.125 -3.625 4.125 -3.5 1.125 C-2.5 0.125 -2.5 0.125 0 0 Z " fill="#5A5959" transform="translate(115.5,27.875)"/>
<path d="M0 0 C2.625 0.375 2.625 0.375 5 1 C5.625 3.375 5.625 3.375 6 6 C5.34 6.66 4.68 7.32 4 8 C1.375 7.625 1.375 7.625 -1 7 C-1.625 4.625 -1.625 4.625 -2 2 C-1.34 1.34 -0.68 0.68 0 0 Z " fill="#161616" transform="translate(85,28)"/>
<path d="M0 0 C1.65 0 3.3 0 5 0 C5.60318451 6.03184515 5.60318451 6.03184515 3.921875 8.73046875 C2.66245219 10.19617633 1.33355063 11.60139812 0 13 C-0.33 13.66 -0.66 14.32 -1 15 C-1.66 14.67 -2.32 14.34 -3 14 C-2.7834375 13.40832031 -2.566875 12.81664062 -2.34375 12.20703125 C-0.22239206 6.26339098 -0.22239206 6.26339098 0 0 Z " fill="#E2DAD5" transform="translate(56,3)"/>
<path d="M0 0 C-0.804375 0.886875 -1.60875 1.77375 -2.4375 2.6875 C-4.7039159 5.38287032 -5.68417366 7.42063478 -6 11 C-9.2542015 8.16569547 -10.5206753 6.31392226 -11 2 C-7.36576791 -0.32590854 -4.22911669 -0.16265833 0 0 Z " fill="#E7E4E7" transform="translate(43,0)"/>
<path d="M0 0 C6.15234375 -0.09765625 6.15234375 -0.09765625 8 0 C9 1 9 1 9.0625 3.5625 C9.041875 4.366875 9.02125 5.17125 9 6 C6.03 6 3.06 6 0 6 C0 4.02 0 2.04 0 0 Z " fill="#8F8C8B" transform="translate(116,54)"/>
<path d="M0 0 C4.70588235 0.70588235 4.70588235 0.70588235 6 2 C6.125 4.5 6.125 4.5 6 7 C5 8 5 8 2.5 8.125 C0 8 0 8 -1 7 C-1.125 4 -1.125 4 -1 1 C-0.67 0.67 -0.34 0.34 0 0 Z " fill="#575756" transform="translate(122,28)"/>
<path d="M0 0 C0.66 0.33 1.32 0.66 2 1 C2 3.31 2 5.62 2 8 C-1.375 8.125 -1.375 8.125 -5 8 C-5.66 7.34 -6.32 6.68 -7 6 C-6.625 3.875 -6.625 3.875 -6 2 C-4.35 2 -2.7 2 -1 2 C-0.67 1.34 -0.34 0.68 0 0 Z " fill="#9CA387" transform="translate(166,85)"/>
<path d="M0 0 C2.97 0.33 5.94 0.66 9 1 C8.67 1.66 8.34 2.32 8 3 C-4.21 3 -16.42 3 -29 3 C-29 2.67 -29 2.34 -29 2 C-19.43 1.67 -9.86 1.34 0 1 C0 0.67 0 0.34 0 0 Z " fill="#F9FDFE" transform="translate(128,42)"/>
<path d="M0 0 C1 1 1 1 1.0625 4.5625 C1.041875 5.696875 1.02125 6.83125 1 8 C-0.98 8 -2.96 8 -5 8 C-5.33 6.68 -5.66 5.36 -6 4 C-4.35 3.67 -2.7 3.34 -1 3 C-1 2.34 -1 1.68 -1 1 C-2.65 1.33 -4.3 1.66 -6 2 C-6 1.34 -6 0.68 -6 0 C-3.49749232 -1.25125384 -2.59701335 -0.83774624 0 0 Z " fill="#393838" transform="translate(165,12)"/>
<path d="M0 0 C3.875 0.875 3.875 0.875 5 2 C5.04092937 4.33297433 5.04241723 6.66705225 5 9 C3.02 9 1.04 9 -1 9 C-1.625 7.125 -1.625 7.125 -2 5 C-1.34 4.34 -0.68 3.68 0 3 C0 2.01 0 1.02 0 0 Z " fill="#161616" transform="translate(126,11)"/>
<path d="M0 0 C2.31 0 4.62 0 7 0 C7.6875 1.8125 7.6875 1.8125 8 4 C6.35495989 6.46756016 5.19700648 6.94960299 2.3125 7.6875 C1.1678125 7.8421875 1.1678125 7.8421875 0 8 C0 5.36 0 2.72 0 0 Z " fill="#8E9784" transform="translate(113,87)"/>
<path d="M0 0 C2.625 0.375 2.625 0.375 5 1 C5 2.32 5 3.64 5 5 C3.68 5 2.36 5 1 5 C1 5.66 1 6.32 1 7 C2.32 6.67 3.64 6.34 5 6 C4.67 6.99 4.34 7.98 4 9 C-0.875 8.125 -0.875 8.125 -2 7 C-2.1875 4.5625 -2.1875 4.5625 -2 2 C-1.34 1.34 -0.68 0.68 0 0 Z " fill="#3F403E" transform="translate(179,28)"/>
<path d="M0 0 C0.598125 0.226875 1.19625 0.45375 1.8125 0.6875 C2.1425 2.0075 2.4725 3.3275 2.8125 4.6875 C1.1625 4.6875 -0.4875 4.6875 -2.1875 4.6875 C-2.1875 5.3475 -2.1875 6.0075 -2.1875 6.6875 C-0.8675 6.3575 0.4525 6.0275 1.8125 5.6875 C1.4825 6.6775 1.1525 7.6675 0.8125 8.6875 C-0.8375 8.3575 -2.4875 8.0275 -4.1875 7.6875 C-4.875 5.375 -4.875 5.375 -5.1875 2.6875 C-3.60587179 0.1901923 -2.97595617 -0.4251366 0 0 Z " fill="#434140" transform="translate(106.1875,11.3125)"/>
<path d="M0 0 C0.66 1.32 1.32 2.64 2 4 C3.65 4 5.3 4 7 4 C7 5.32 7 6.64 7 8 C5.35 8 3.7 8 2 8 C2 8.99 2 9.98 2 11 C1.34 11 0.68 11 0 11 C0 10.01 0 9.02 0 8 C-1.32 7.67 -2.64 7.34 -4 7 C-3.525625 6.401875 -3.05125 5.80375 -2.5625 5.1875 C-0.83534256 2.99617076 -0.83534256 2.99617076 0 0 Z " fill="#E1E6CD" transform="translate(65,35)"/>
<path d="M0 0 C1.32 0 2.64 0 4 0 C3.67 1.216875 3.34 2.43375 3 3.6875 C1.62111435 9.7662494 1.82754634 15.80124915 2 22 C0.68 21.67 -0.64 21.34 -2 21 C-2 20.34 -2 19.68 -2 19 C-1.34 19 -0.68 19 0 19 C-0.185625 17.72125 -0.37125 16.4425 -0.5625 15.125 C-1.15229454 9.97248934 -0.69480064 5.12014627 0 0 Z " fill="#A90E0D" transform="translate(18,26)"/>
<path d="M0 0 C3.96 0.33 7.92 0.66 12 1 C11.67 1.66 11.34 2.32 11 3 C8.69 3 6.38 3 4 3 C4.226875 3.763125 4.45375 4.52625 4.6875 5.3125 C4.790625 6.199375 4.89375 7.08625 5 8 C3.5625 9.8125 3.5625 9.8125 2 11 C2 9.35 2 7.7 2 6 C1.34 6 0.68 6 0 6 C0 5.01 0 4.02 0 3 C-0.66 2.67 -1.32 2.34 -2 2 C-1.34 2 -0.68 2 0 2 C0 1.34 0 0.68 0 0 Z " fill="#F1DFDD" transform="translate(13,65)"/>
<path d="M0 0 C2.97 0 5.94 0 9 0 C8.34 1.98 7.68 3.96 7 6 C5.02 6 3.04 6 1 6 C-0.0625 4.125 -0.0625 4.125 -1 2 C-0.67 1.34 -0.34 0.68 0 0 Z " fill="#30312E" transform="translate(114,65)"/>
<path d="M0 0 C0.99 0.33 1.98 0.66 3 1 C3.66 0.67 4.32 0.34 5 0 C5.66 0.66 6.32 1.32 7 2 C7.33 1.34 7.66 0.68 8 0 C8.66 0 9.32 0 10 0 C9.34 2.64 8.68 5.28 8 8 C7.34 8 6.68 8 6 8 C5.67 7.01 5.34 6.02 5 5 C4.01 6.485 4.01 6.485 3 8 C2.34 8 1.68 8 1 8 C0.67 5.36 0.34 2.72 0 0 Z " fill="#2E2D2C" transform="translate(127,63)"/>
<path d="M0 0 C3 1 3 1 5 2 C5 2.99 5 3.98 5 5 C5.66 5 6.32 5 7 5 C7.33 4.34 7.66 3.68 8 3 C7.67 4.65 7.34 6.3 7 8 C6.34 8 5.68 8 5 8 C4.67 6.68 4.34 5.36 4 4 C3.34 4 2.68 4 2 4 C1.67 5.32 1.34 6.64 1 8 C0.67 6.68 0.34 5.36 0 4 C-0.66 4 -1.32 4 -2 4 C-1.67 5.32 -1.34 6.64 -1 8 C-1.66 8 -2.32 8 -3 8 C-3.33 6.02 -3.66 4.04 -4 2 C-3.34 1.67 -2.68 1.34 -2 1 C-1.34 1.33 -0.68 1.66 0 2 C0 1.34 0 0.68 0 0 Z " fill="#3F3E3D" transform="translate(130,52)"/>
<path d="M0 0 C2.625 0.375 2.625 0.375 5 1 C5 2.32 5 3.64 5 5 C4.01 5.495 4.01 5.495 3 6 C3.66 6 4.32 6 5 6 C5 6.66 5 7.32 5 8 C3.00045254 8.04254356 0.99958364 8.04080783 -1 8 C-2 7 -2 7 -2.1875 4.5625 C-2 2 -2 2 0 0 Z " fill="#282827" transform="translate(140,28)"/>
<path d="M0 0 C2.625 0.375 2.625 0.375 5 1 C5.33 1.99 5.66 2.98 6 4 C5.34 4 4.68 4 4 4 C4 3.34 4 2.68 4 2 C3.01 2.33 2.02 2.66 1 3 C1 4.98 1 6.96 1 9 C2.65 8.34 4.3 7.68 6 7 C5.67 8.32 5.34 9.64 5 11 C3.00045254 11.04254356 0.99958364 11.04080783 -1 11 C-2.89488952 9.10511048 -2.18019112 6.42860854 -2.23046875 3.91015625 C-2 2 -2 2 0 0 Z " fill="#1B1A19" transform="translate(104,25)"/>
<path d="M0 0 C2.125 0.9375 2.125 0.9375 4 2 C4 4.31 4 6.62 4 9 C1.69 8.67 -0.62 8.34 -3 8 C-3 7.01 -3 6.02 -3 5 C-1.35 4.67 0.3 4.34 2 4 C2 3.34 2 2.68 2 2 C0.68 2.33 -0.64 2.66 -2 3 C-2 2.34 -2 1.68 -2 1 C-1.34 0.67 -0.68 0.34 0 0 Z " fill="#353534" transform="translate(195,11)"/>
<path d="M0 0 C2.3125 -0.25 2.3125 -0.25 5 0 C6.875 1.75 6.875 1.75 8 4 C7.6875 6.25 7.6875 6.25 7 8 C5.02 8 3.04 8 1 8 C1.33 7.01 1.66 6.02 2 5 C1.34 5 0.68 5 0 5 C0 3.35 0 1.7 0 0 Z " fill="#9D9E96" transform="translate(122,87)"/>
<path d="M0 0 C2.125 0.375 2.125 0.375 4 1 C4.33 2.32 4.66 3.64 5 5 C3.35 5 1.7 5 0 5 C0 5.66 0 6.32 0 7 C1.65 7 3.3 7 5 7 C4.67 7.66 4.34 8.32 4 9 C-0.875 8.125 -0.875 8.125 -2 7 C-2.1875 4.5625 -2.1875 4.5625 -2 2 C-1.34 1.34 -0.68 0.68 0 0 Z " fill="#353534" transform="translate(186,11)"/>
<path d="M0 0 C0.99 0 1.98 0 3 0 C3.33 0.66 3.66 1.32 4 2 C5.32 1.34 6.64 0.68 8 0 C8 2.31 8 4.62 8 7 C5.33333333 7 2.66666667 7 0 7 C0 4.69 0 2.38 0 0 Z " fill="#5A6551" transform="translate(13,85)"/>
<path d="M0 0 C1.98 0 3.96 0 6 0 C5.67 1.65 5.34 3.3 5 5 C4.34 5 3.68 5 3 5 C2.5978125 6.2065625 2.5978125 6.2065625 2.1875 7.4375 C1.795625 8.283125 1.40375 9.12875 1 10 C0.01 10.33 -0.98 10.66 -2 11 C-2.33 9.68 -2.66 8.36 -3 7 C-2.01 6.67 -1.02 6.34 0 6 C1.21869929 3.49552484 1.21869929 3.49552484 2 1 C1.34 0.67 0.68 0.34 0 0 Z " fill="#FAF9F7" transform="translate(73,80)"/>
<path d="M0 0 C0.66 0 1.32 0 2 0 C1.49701212 4.40114397 -0.08772731 6.71195019 -3 10 C-0.36 10 2.28 10 5 10 C5 10.33 5 10.66 5 11 C2.03 11 -0.94 11 -4 11 C-4 7.7 -4 4.4 -4 1 C-2.68 1.33 -1.36 1.66 0 2 C0 1.34 0 0.68 0 0 Z " fill="#EBF2D9" transform="translate(60,35)"/>
<path d="M0 0 C0.268125 0.639375 0.53625 1.27875 0.8125 1.9375 C1.88667752 4.33131686 1.88667752 4.33131686 5 5 C2.625 6.0625 2.625 6.0625 0 7 C-0.66 6.67 -1.32 6.34 -2 6 C-2.33 7.32 -2.66 8.64 -3 10 C-3.66 10 -4.32 10 -5 10 C-5 7.36 -5 4.72 -5 2 C-3.35 1.34 -1.7 0.68 0 0 Z " fill="#E3E2DF" transform="translate(152,26)"/>
<path d="M0 0 C0.66 1.32 1.32 2.64 2 4 C2.66 3.34 3.32 2.68 4 2 C4 3.98 4 5.96 4 8 C1.125 8.125 1.125 8.125 -2 8 C-2.66 7.34 -3.32 6.68 -4 6 C-3.625 3.875 -3.625 3.875 -3 2 C-2.01 2 -1.02 2 0 2 C0 1.34 0 0.68 0 0 Z " fill="#838E73" transform="translate(185,85)"/>
<path d="M0 0 C-0.875 4.875 -0.875 4.875 -2 6 C-3.99958364 6.04080783 -6.00045254 6.04254356 -8 6 C-8.33 5.34 -8.66 4.68 -9 4 C-8.34 4 -7.68 4 -7 4 C-7 3.01 -7 2.02 -7 1 C-4.53721199 -0.231394 -2.7204945 -0.07159196 0 0 Z " fill="#0D130E" transform="translate(27,59)"/>
<path d="M0 0 C2.475 0.495 2.475 0.495 5 1 C5 3.31 5 5.62 5 8 C3.35 8 1.7 8 0 8 C0 5.36 0 2.72 0 0 Z " fill="#40403E" transform="translate(154,52)"/>
<path d="M0 0 C1.99954746 -0.04254356 4.00041636 -0.04080783 6 0 C7 1 7 1 7.0625 4.5625 C7.041875 5.696875 7.02125 6.83125 7 8 C6.34 8 5.68 8 5 8 C5 6.02 5 4.04 5 2 C4.01 2 3.02 2 2 2 C2 4.31 2 6.62 2 9 C1.34 9 0.68 9 0 9 C0 6.03 0 3.06 0 0 Z " fill="#232322" transform="translate(88,11)"/>
<path d="M0 0 C1.66611905 -0.042721 3.33382885 -0.04063832 5 0 C6 1 6 1 6.09765625 2.84765625 C6.06510417 4.8984375 6.03255208 6.94921875 6 9 C5.34 9 4.68 9 4 9 C4 6.69 4 4.38 4 2 C3.34 2 2.68 2 2 2 C2 4.31 2 6.62 2 9 C1.34 9 0.68 9 0 9 C0 6.03 0 3.06 0 0 Z " fill="#3E3E3D" transform="translate(116,11)"/>
<path d="M0 0 C2.475 0.495 2.475 0.495 5 1 C5 2.98 5 4.96 5 7 C3.35 7.33 1.7 7.66 0 8 C0 5.36 0 2.72 0 0 Z " fill="#383736" transform="translate(92,63)"/>
<path d="M0 0 C2.475 0.495 2.475 0.495 5 1 C5 2.65 5 4.3 5 6 C6.98 5.67 8.96 5.34 11 5 C11 5.66 11 6.32 11 7 C9.35 7 7.7 7 6 7 C6 7.66 6 8.32 6 9 C2.96101874 7.98700625 1.87860833 7.5048111 0 5 C-0.1875 2.3125 -0.1875 2.3125 0 0 Z " fill="#DBD1D3" transform="translate(37,11)"/>
<path d="M0 0 C0.33 0.66 0.66 1.32 1 2 C0.01 2.33 -0.98 2.66 -2 3 C1.3 3.99 4.6 4.98 8 6 C8 6.33 8 6.66 8 7 C-0.60363924 7.68829114 -0.60363924 7.68829114 -4.5625 5.125 C-5.366875 4.42375 -6.17125 3.7225 -7 3 C-7 2.34 -7 1.68 -7 1 C-3.535 0.505 -3.535 0.505 0 0 Z " fill="#B20A0D" transform="translate(24,67)"/>
<path d="M0 0 C0.66 0 1.32 0 2 0 C2 2.64 2 5.28 2 8 C0.35 8 -1.3 8 -3 8 C-4.125 4.25 -4.125 4.25 -3 2 C-2.01 2 -1.02 2 0 2 C0 1.34 0 0.68 0 0 Z " fill="#494644" transform="translate(155,63)"/>
<path d="M0 0 C0.99 0 1.98 0 3 0 C3.33 1.32 3.66 2.64 4 4 C4.66 4 5.32 4 6 4 C6.33 2.68 6.66 1.36 7 0 C7.66 0 8.32 0 9 0 C8.690625 0.70125 8.38125 1.4025 8.0625 2.125 C6.96697322 5.08936657 6.43577008 7.87698108 6 11 C5.34 11 4.68 11 4 11 C3.71125 10.113125 3.4225 9.22625 3.125 8.3125 C2.16851252 5.49617576 1.13201054 2.74916844 0 0 Z " fill="#262625" transform="translate(175,9)"/>
<path d="M0 0 C2.475 0.495 2.475 0.495 5 1 C5 2.65 5 4.3 5 6 C4.01 6 3.02 6 2 6 C2 6.99 2 7.98 2 9 C1.34 9 0.68 9 0 9 C0 6.03 0 3.06 0 0 Z " fill="#6E7366" transform="translate(87,86)"/>
<path d="M0 0 C1.67542976 0.28604898 3.34385343 0.61781233 5 1 C4.67 2.65 4.34 4.3 4 6 C2.0625 6.5625 2.0625 6.5625 0 7 C-1 6 -1 6 -1.125 3.5 C-1 1 -1 1 0 0 Z " fill="#1E1B1B" transform="translate(14,19)"/>
<path d="M0 0 C0.99 0 1.98 0 3 0 C4.125 4.75 4.125 4.75 3 7 C0.69 7 -1.62 7 -4 7 C-4 6.01 -4 5.02 -4 4 C-2.68 4 -1.36 4 0 4 C0 2.68 0 1.36 0 0 Z " fill="#EFF1EA" transform="translate(45,88)"/>
<path d="M0 0 C1.67542976 0.28604898 3.34385343 0.61781233 5 1 C5 2.32 5 3.64 5 5 C3.35 5.33 1.7 5.66 0 6 C-0.38218767 4.34385343 -0.71395102 2.67542976 -1 1 C-0.67 0.67 -0.34 0.34 0 0 Z " fill="#100F0F" transform="translate(18,52)"/>
<path d="M0 0 C2.5 0.125 2.5 0.125 3.5 1.125 C3.54092937 3.45797433 3.54241723 5.79205225 3.5 8.125 C3.17 8.125 2.84 8.125 2.5 8.125 C2.17 6.475 1.84 4.825 1.5 3.125 C0.51 2.795 -0.48 2.465 -1.5 2.125 C-1.5 4.435 -1.5 6.745 -1.5 9.125 C-2.49 9.62 -2.49 9.62 -3.5 10.125 C-3.52689216 8.64593108 -3.54634621 7.16672517 -3.5625 5.6875 C-3.57410156 4.86378906 -3.58570313 4.04007813 -3.59765625 3.19140625 C-3.4527802 0.12582896 -3.07795841 0.15389792 0 0 Z " fill="#081008" transform="translate(51.5,32.875)"/>
<path d="M0 0 C0 0.66 0 1.32 0 2 C-0.99 2 -1.98 2 -3 2 C-3 2.66 -3 3.32 -3 4 C-1.68 4 -0.36 4 1 4 C0.67 4.66 0.34 5.32 0 6 C-1.32 6 -2.64 6 -4 6 C-6 4 -6 4 -7 2 C-8.98 2 -10.96 2 -13 2 C-13 1.67 -13 1.34 -13 1 C-8.60563789 0.14256349 -4.47427924 -0.08948558 0 0 Z " fill="#080946" transform="translate(31,10)"/>
<path d="M0 0 C-1 3 -1 3 -4.0625 4.6875 C-5.031875 5.120625 -6.00125 5.55375 -7 6 C-7.99 5.01 -8.98 4.02 -10 3 C-7.29536552 -0.8183075 -4.37912428 -0.24787496 0 0 Z " fill="#F9FAF9" transform="translate(95,47)"/>
<path d="M0 0 C0.33 0.66 0.66 1.32 1 2 C-1.19566645 8.47143795 -1.19566645 8.47143795 -4.1875 10.4375 C-5.0846875 10.7159375 -5.0846875 10.7159375 -6 11 C-6.33 10.01 -6.66 9.02 -7 8 C-5.71034824 6.62437146 -4.37310707 5.29233607 -3 4 C-2.34 4 -1.68 4 -1 4 C-0.67 2.68 -0.34 1.36 0 0 Z " fill="#EA0102" transform="translate(17,29)"/>
<path d="M0 0 C1.65 0.33 3.3 0.66 5 1 C5 1.66 5 2.32 5 3 C3.68 2.67 2.36 2.34 1 2 C1 2.66 1 3.32 1 4 C2.32 4.33 3.64 4.66 5 5 C5 5.99 5 6.98 5 8 C1.25 9.125 1.25 9.125 -1 8 C-0.67 7.34 -0.34 6.68 0 6 C0.99 6.33 1.98 6.66 3 7 C3 6.34 3 5.68 3 5 C1.68 4.67 0.36 4.34 -1 4 C-0.67 2.68 -0.34 1.36 0 0 Z " fill="#1E1E1C" transform="translate(187,28)"/>
<path d="M0 0 C0.99 0 1.98 0 3 0 C2.34580901 5.06998019 0.1453591 9.41990777 -2 14 C-2.66 14 -3.32 14 -4 14 C-4.36071142 10.12235221 -4.37199479 8.499868 -2 5.3125 C-1.34 4.549375 -0.68 3.78625 0 3 C0 2.01 0 1.02 0 0 Z " fill="#1B2414" transform="translate(8,27)"/>
<path d="M0 0 C1.67542976 0.28604898 3.34385343 0.61781233 5 1 C4.67 2.65 4.34 4.3 4 6 C2.35 6 0.7 6 -1 6 C-1.042721 4.33388095 -1.04063832 2.66617115 -1 1 C-0.67 0.67 -0.34 0.34 0 0 Z " fill="#090A09" transform="translate(43,11)"/>
<path d="M0 0 C0 0.66 0 1.32 0 2 C-0.804375 2.226875 -1.60875 2.45375 -2.4375 2.6875 C-3.283125 3.120625 -4.12875 3.55375 -5 4 C-5.89386164 6.54775306 -5.89386164 6.54775306 -6 9 C-5.34 9 -4.68 9 -4 9 C-3.67 8.34 -3.34 7.68 -3 7 C-3 8.32 -3 9.64 -3 11 C-4.65 10.67 -6.3 10.34 -8 10 C-7.39457203 3.58246347 -7.39457203 3.58246347 -5.6875 1.0625 C-4 0 -4 0 0 0 Z " fill="#A31517" transform="translate(45,1)"/>
<path d="M0 0 C0.66 0 1.32 0 2 0 C2 2.64 2 5.28 2 8 C1.34 8 0.68 8 0 8 C0 6.68 0 5.36 0 4 C-0.66 4 -1.32 4 -2 4 C-2 5.32 -2 6.64 -2 8 C-2.66 8 -3.32 8 -4 8 C-4 6.02 -4 4.04 -4 2 C-2.68 2 -1.36 2 0 2 C0 1.34 0 0.68 0 0 Z " fill="#3F3C3B" transform="translate(148,63)"/>
<path d="M0 0 C1.65 0.33 3.3 0.66 5 1 C4.67 2.65 4.34 4.3 4 6 C2.35 5.67 0.7 5.34 -1 5 C-0.67 3.35 -0.34 1.7 0 0 Z " fill="#0B0A0A" transform="translate(64,56)"/>
<path d="M0 0 C0.33 0.66 0.66 1.32 1 2 C1.66 1.67 2.32 1.34 3 1 C5.6723621 0.86584528 8.32250488 0.95681459 11 1 C11 3.31 11 5.62 11 8 C11.66 8.33 12.32 8.66 13 9 C11.68 9 10.36 9 9 9 C9 7.02 9 5.04 9 3 C8.01 3.33 7.02 3.66 6 4 C3.99124558 3.72428861 1.98821313 3.39764263 0 3 C0 2.01 0 1.02 0 0 Z " fill="#BCCED7" transform="translate(11,16)"/>
<path d="M0 0 C1.65 0.33 3.3 0.66 5 1 C4.67 2.65 4.34 4.3 4 6 C2.35 5.67 0.7 5.34 -1 5 C-0.67 3.35 -0.34 1.7 0 0 Z " fill="#030303" transform="translate(64,15)"/>
<path d="M0 0 C2.46800047 1.15173355 4.04783565 2.04783565 6 4 C4.35 3.67 2.7 3.34 1 3 C0.67 3.99 0.34 4.98 0 6 C0.66 6 1.32 6 2 6 C2.66 7.65 3.32 9.3 4 11 C1.11562221 9.70700306 -0.87219421 8.34058637 -3 6 C-2.01 4.02 -1.02 2.04 0 0 Z " fill="#AD0F12" transform="translate(29,60)"/>
<path d="M0 0 C1.98 0 3.96 0 6 0 C7 4.75 7 4.75 7 7 C6.34 7 5.68 7 5 7 C4.67 5.35 4.34 3.7 4 2 C3.34 2 2.68 2 2 2 C2.33 3.65 2.66 5.3 3 7 C2.01 6.67 1.02 6.34 0 6 C0 4.02 0 2.04 0 0 Z " fill="#252321" transform="translate(105,64)"/>
<path d="M0 0 C0.99 0 1.98 0 3 0 C3 0.66 3 1.32 3 2 C2.34 2 1.68 2 1 2 C1.185625 2.53625 1.37125 3.0725 1.5625 3.625 C2.11419324 6.61990614 1.60597444 9.03745829 1 12 C0.34 12 -0.32 12 -1 12 C-2.42857143 3.42857143 -2.42857143 3.42857143 0 0 Z " fill="#262625" transform="translate(94,24)"/>
<path d="M0 0 C2.31 0 4.62 0 7 0 C7 1.66666667 7 3.33333333 7 5 C5.68 5 4.36 5 3 5 C2.67 5.66 2.34 6.32 2 7 C1.34 4.69 0.68 2.38 0 0 Z " fill="#F2F1F0" transform="translate(27,80)"/>
<path d="M0 0 C2.475 0.495 2.475 0.495 5 1 C4.67 2.65 4.34 4.3 4 6 C3.01 6 2.02 6 1 6 C0.67 6.66 0.34 7.32 0 8 C0 5.36 0 2.72 0 0 Z " fill="#393939" transform="translate(103,54)"/>
<path d="M0 0 C0.66 0.99 1.32 1.98 2 3 C2.66 2.01 3.32 1.02 4 0 C4 1.98 4 3.96 4 6 C2.02 6.99 0.04 7.98 -2 9 C-2 6.69 -2 4.38 -2 2 C-1.34 2 -0.68 2 0 2 C0 1.34 0 0.68 0 0 Z " fill="#FCFCFA" transform="translate(97,28)"/>
<path d="M0 0 C2.475 0.495 2.475 0.495 5 1 C5 2.65 5 4.3 5 6 C3.35 6 1.7 6 0 6 C0 4.02 0 2.04 0 0 Z " fill="#959A85" transform="translate(175,87)"/>
<path d="M0 0 C-0.33 1.32 -0.66 2.64 -1 4 C-1.804375 4.12375 -2.60875 4.2475 -3.4375 4.375 C-4.7059375 4.684375 -4.7059375 4.684375 -6 5 C-6.33 5.66 -6.66 6.32 -7 7 C-7.99 6.67 -8.98 6.34 -10 6 C-10 5.34 -10 4.68 -10 4 C-3.375 0 -3.375 0 0 0 Z " fill="#0D101D" transform="translate(72,63)"/>
<path d="M0 0 C0.66 0 1.32 0 2 0 C2 0.99 2 1.98 2 3 C1.34 3 0.68 3 0 3 C0.33 5.31 0.66 7.62 1 10 C-0.32 10.99 -1.64 11.98 -3 13 C-3.66 12.34 -4.32 11.68 -5 11 C-4.34 10.67 -3.68 10.34 -3 10 C-2.3507139 8.17912417 -2.3507139 8.17912417 -1.9375 6.0625 C-1.44690289 3.82845863 -1.02602198 2.05204395 0 0 Z " fill="#E6CCCA" transform="translate(12,42)"/>
<path d="M0 0 C1.32 0.33 2.64 0.66 4 1 C4.33 2.65 4.66 4.3 5 6 C4.01 6.33 3.02 6.66 2 7 C1.34 6.67 0.68 6.34 0 6 C0 4.02 0 2.04 0 0 Z " fill="#868684" transform="translate(130,28)"/>
<path d="M0 0 C0.33 0.66 0.66 1.32 1 2 C1.66 2 2.32 2 3 2 C3 2.66 3 3.32 3 4 C2.34 4 1.68 4 1 4 C1 5.65 1 7.3 1 9 C1.66 9 2.32 9 3 9 C3 9.66 3 10.32 3 11 C1.68 10.67 0.36 10.34 -1 10 C-1.9765625 3.9453125 -1.9765625 3.9453125 -2 2 C-1.34 1.34 -0.68 0.68 0 0 Z " fill="#373736" transform="translate(162,26)"/>
<path d="M0 0 C0.66 0 1.32 0 2 0 C3.10844919 3.32534757 2.84454356 5.62182575 2 9 C2.66 9 3.32 9 4 9 C4 9.66 4 10.32 4 11 C2.68 10.67 1.36 10.34 0 10 C-1.125 2.25 -1.125 2.25 0 0 Z " fill="#232221" transform="translate(97,9)"/>
<path d="M0 0 C1.32 0 2.64 0 4 0 C4 0.66 4 1.32 4 2 C4.66 2.33 5.32 2.66 6 3 C6 3.99 6 4.98 6 6 C4.68 5.67 3.36 5.34 2 5 C1.67 5.99 1.34 6.98 1 8 C0 2.25 0 2.25 0 0 Z " fill="#DDDCD8" transform="translate(80,63)"/>
<path d="M0 0 C2.33944736 0.28730055 4.6739143 0.61936779 7 1 C7.33 1.99 7.66 2.98 8 4 C4.625 4.1875 4.625 4.1875 1 4 C0.34 3.01 -0.32 2.02 -1 1 C-0.67 0.67 -0.34 0.34 0 0 Z " fill="#040A04" transform="translate(63,9)"/>
<path d="M0 0 C0 2.31 0 4.62 0 7 C-2 6 -2 6 -3 3 C-3.66 4.32 -4.32 5.64 -5 7 C-5.66 6.67 -6.32 6.34 -7 6 C-7.625 3.4375 -7.625 3.4375 -8 1 C-7.01 1 -6.02 1 -5 1 C-2 0 -2 0 0 0 Z " fill="#595D50" transform="translate(155,86)"/>
<path d="M0 0 C1.98 0 3.96 0 6 0 C6 1.98 6 3.96 6 6 C5.01 5.67 4.02 5.34 3 5 C3.33 4.67 3.66 4.34 4 4 C3.34 3.67 2.68 3.34 2 3 C1.67 3.99 1.34 4.98 1 6 C0.67 6 0.34 6 0 6 C0 4.02 0 2.04 0 0 Z " fill="#5D6356" transform="translate(32,86)"/>
<path d="M0 0 C0.66 0 1.32 0 2 0 C2.185625 0.9590625 2.185625 0.9590625 2.375 1.9375 C2.684375 2.9584375 2.684375 2.9584375 3 4 C3.66 4.33 4.32 4.66 5 5 C4.01 6.98 3.02 8.96 2 11 C1.34 9.68 0.68 8.36 0 7 C0.66 7 1.32 7 2 7 C2 6.34 2 5.68 2 5 C1.34 5 0.68 5 0 5 C0 3.35 0 1.7 0 0 Z " fill="#DFDEDB" transform="translate(132,56)"/>
<path d="M0 0 C1.32 0.33 2.64 0.66 4 1 C4 3.31 4 5.62 4 8 C3.01 8.33 2.02 8.66 1 9 C0.67 6.03 0.34 3.06 0 0 Z " fill="#9F9E9C" transform="translate(167,52)"/>
<path d="M0 0 C0.99 0.33 1.98 0.66 3 1 C2.67 3.31 2.34 5.62 2 8 C2.66 8 3.32 8 4 8 C4 8.66 4 9.32 4 10 C2.68 9.67 1.36 9.34 0 9 C-0.87890625 2.84765625 -0.87890625 2.84765625 -1 1 C-0.67 0.67 -0.34 0.34 0 0 Z " fill="#242422" transform="translate(133,10)"/>
<path d="M0 0 C1.98 0.495 1.98 0.495 4 1 C3.67 2.65 3.34 4.3 3 6 C1.68 5.67 0.36 5.34 -1 5 C-0.67 3.35 -0.34 1.7 0 0 Z " fill="#464644" transform="translate(138,65)"/>
<path d="M0 0 C1.98 0.495 1.98 0.495 4 1 C4 2.65 4 4.3 4 6 C2.35 5.67 0.7 5.34 -1 5 C-0.67 3.35 -0.34 1.7 0 0 Z " fill="#393936" transform="translate(140,54)"/>
<path d="M0 0 C1.98 0.495 1.98 0.495 4 1 C3.67 2.65 3.34 4.3 3 6 C1.68 5.67 0.36 5.34 -1 5 C-0.67 3.35 -0.34 1.7 0 0 Z " fill="#444342" transform="translate(97,54)"/>
<path d="M0 0 C0.66 0.33 1.32 0.66 2 1 C2 3.31 2 5.62 2 8 C1.01 8 0.02 8 -1 8 C-3.1875 5.5 -3.1875 5.5 -5 3 C-4.360625 2.690625 -3.72125 2.38125 -3.0625 2.0625 C-1.06389179 1.1654837 -1.06389179 1.1654837 0 0 Z " fill="#E5E6E2" transform="translate(100,25)"/>
<path d="M0 0 C0.99 0 1.98 0 3 0 C3.33 1.65 3.66 3.3 4 5 C2.68 5.33 1.36 5.66 0 6 C-0.38218767 4.34385343 -0.71395102 2.67542976 -1 1 C-0.67 0.67 -0.34 0.34 0 0 Z " fill="#62685B" transform="translate(57,86)"/>
<path d="M0 0 C1.98 0.495 1.98 0.495 4 1 C3.67 2.65 3.34 4.3 3 6 C1.68 5.67 0.36 5.34 -1 5 C-0.67 3.35 -0.34 1.7 0 0 Z " fill="#2A2A28" transform="translate(100,65)"/>
<path d="M0 0 C0.33 0.66 0.66 1.32 1 2 C3.02463255 2.65213292 3.02463255 2.65213292 5 3 C5 5.66666667 5 8.33333333 5 11 C2.46569182 8.79625376 1.59796073 7.28878404 1 4 C0.814375 3.2575 0.62875 2.515 0.4375 1.75 C0.293125 1.1725 0.14875 0.595 0 0 Z " fill="#D6D7D3" transform="translate(109,61)"/>
<path d="M0 0 C0.66 0 1.32 0 2 0 C2.33 0.66 2.66 1.32 3 2 C3.99 2.33 4.98 2.66 6 3 C6 3.66 6 4.32 6 5 C4.35 5.33 2.7 5.66 1 6 C1 5.34 1 4.68 1 4 C-0.65 4.33 -2.3 4.66 -4 5 C-4 4.34 -4 3.68 -4 3 C-2.68 3 -1.36 3 0 3 C0 2.01 0 1.02 0 0 Z " fill="#D6D6D3" transform="translate(184,30)"/>
<path d="M0 0 C0.66 0.33 1.32 0.66 2 1 C0.75 3.9375 0.75 3.9375 -1 7 C-3.1875 7.875 -3.1875 7.875 -5 8 C-5.33 6.35 -5.66 4.7 -6 3 C-4.515 3.99 -4.515 3.99 -3 5 C-2.01 3.35 -1.02 1.7 0 0 Z " fill="#272D21" transform="translate(60,15)"/>
<path d="M0 0 C4.875 1.75 4.875 1.75 6 4 C1.05 4 -3.9 4 -9 4 C-9 3.67 -9 3.34 -9 3 C-7.88625 2.87625 -6.7725 2.7525 -5.625 2.625 C-1.96896323 2.3534187 -1.96896323 2.3534187 0 0 Z " fill="#2E4154" transform="translate(29,5)"/>
<path d="M0 0 C1.65 0 3.3 0 5 0 C5 1.65 5 3.3 5 5 C3.35 5 1.7 5 0 5 C0 3.35 0 1.7 0 0 Z " fill="#10100F" transform="translate(56,3)"/>
<path d="M0 0 C1.98 0.495 1.98 0.495 4 1 C3.67 2.65 3.34 4.3 3 6 C1.68 5.34 0.36 4.68 -1 4 C-0.67 2.68 -0.34 1.36 0 0 Z " fill="#6F7165" transform="translate(160,87)"/>
<path d="M0 0 C1.98 0.495 1.98 0.495 4 1 C3.67 2.65 3.34 4.3 3 6 C1.68 5.34 0.36 4.68 -1 4 C-0.67 2.68 -0.34 1.36 0 0 Z " fill="#7B826E" transform="translate(142,87)"/>
<path d="M0 0 C0.99 0.33 1.98 0.66 3 1 C2.67 2.65 2.34 4.3 2 6 C0.68 5.67 -0.64 5.34 -2 5 C-2 3.68 -2 2.36 -2 1 C-1.34 0.67 -0.68 0.34 0 0 Z " fill="#616659" transform="translate(83,86)"/>
<path d="M0 0 C1.32 0.66 2.64 1.32 4 2 C3.67 3.32 3.34 4.64 3 6 C1.68 5.67 0.36 5.34 -1 5 C-0.67 3.35 -0.34 1.7 0 0 Z " fill="#6A6E5F" transform="translate(76,86)"/>
<path d="M0 0 C4.62 0.66 9.24 1.32 14 2 C9.4240199 4.28799005 7.87351639 3.97470328 3 3 C2.01 2.67 1.02 2.34 0 2 C0 1.34 0 0.68 0 0 Z " fill="#EFB7C0" transform="translate(32,68)"/>
<path d="M0 0 C4.29 0 8.58 0 13 0 C12.67 0.99 12.34 1.98 12 3 C11.01 3.33 10.02 3.66 9 4 C8.34 3.34 7.68 2.68 7 2 C4.67724823 1.59952556 2.34260643 1.2602896 0 1 C0 0.67 0 0.34 0 0 Z " fill="#F9EFED" transform="translate(43,0)"/>
<path d="M0 0 C2.0625 0.4375 2.0625 0.4375 4 1 C3.01 1.33 2.02 1.66 1 2 C1 2.99 1 3.98 1 5 C1.66 5.33 2.32 5.66 3 6 C3 5.34 3 4.68 3 4 C3.66 4 4.32 4 5 4 C4.67 5.32 4.34 6.64 4 8 C0.125 7.125 0.125 7.125 -1 6 C-1.125 3.5 -1.125 3.5 -1 1 C-0.67 0.67 -0.34 0.34 0 0 Z " fill="#4C5142" transform="translate(135,85)"/>
<path d="M0 0 C1.32 0.33 2.64 0.66 4 1 C4 2.65 4 4.3 4 6 C2.68 6 1.36 6 0 6 C0 4.02 0 2.04 0 0 Z " fill="#81817B" transform="translate(40,86)"/>
<path d="M0 0 C1.65 0.33 3.3 0.66 5 1 C5 2.65 5 4.3 5 6 C3.35 6 1.7 6 0 6 C-0.33 5.01 -0.66 4.02 -1 3 C0.32 3.33 1.64 3.66 3 4 C3 3.01 3 2.02 3 1 C2.01 0.67 1.02 0.34 0 0 Z " fill="#3D3C3B" transform="translate(83,65)"/>
<path d="M0 0 C1.98 0.99 3.96 1.98 6 3 C4.35 4.32 2.7 5.64 1 7 C1 6.01 1 5.02 1 4 C0.34 4 -0.32 4 -1 4 C-0.67 2.68 -0.34 1.36 0 0 Z " fill="#E30103" transform="translate(30,62)"/>
<path d="M0 0 C3.37462715 0.54723683 5.08235 1.0549 8 3 C7.67 3.66 7.34 4.32 7 5 C5.68 5 4.36 5 3 5 C3 4.34 3 3.68 3 3 C2.34 2.67 1.68 2.34 1 2 C0.67 2.99 0.34 3.98 0 5 C0 3.35 0 1.7 0 0 Z " fill="#D3E2E7" transform="translate(28,15)"/>
<path d="M0 0 C0.66 0.33 1.32 0.66 2 1 C2.625 3.0625 2.625 3.0625 3 5 C2.01 5.495 2.01 5.495 1 6 C1 5.34 1 4.68 1 4 C0.01 4.66 -0.98 5.32 -2 6 C-2.99 5.67 -3.98 5.34 -5 5 C-3.35 3.35 -1.7 1.7 0 0 Z " fill="#172315" transform="translate(61,9)"/>
<path d="M0 0 C2.71928517 0.37507382 3.84218661 0.84218661 5.8125 2.8125 C7 5 7 5 6.6875 7.25 C6.460625 7.8275 6.23375 8.405 6 9 C5.34 8.67 4.68 8.34 4 8 C3.375 5.4375 3.375 5.4375 3 3 C2.01 2.67 1.02 2.34 0 2 C0 1.34 0 0.68 0 0 Z " fill="#B3191C" transform="translate(47,1)"/>
<path d="M0 0 C0.99 0.66 1.98 1.32 3 2 C3 2.99 3 3.98 3 5 C1.02 5.66 -0.96 6.32 -3 7 C-3.33 6.01 -3.66 5.02 -4 4 C-3.01 3.67 -2.02 3.34 -1 3 C-0.67 2.01 -0.34 1.02 0 0 Z " fill="#D2D8D9" transform="translate(69,58)"/>
<path d="M0 0 C1.98 0.495 1.98 0.495 4 1 C4 2.65 4 4.3 4 6 C2.35 6 0.7 6 -1 6 C-1 3 -1 3 0 2 C0 1.34 0 0.68 0 0 Z " fill="#272624" transform="translate(121,54)"/>
<path d="M0 0 C0.99 0 1.98 0 3 0 C3 2.31 3 4.62 3 7 C2.01 7 1.02 7 0 7 C0 4.69 0 2.38 0 0 Z " fill="#DEEBD5" transform="translate(50,35)"/>
<path d="M0 0 C0.75 1.5625 0.75 1.5625 1 4 C-0.13084437 6.50286409 -1.52139516 8.67007722 -3 11 C-3.66 10.34 -4.32 9.68 -5 9 C-3.46395304 5.85808576 -1.94268841 2.91403262 0 0 Z " fill="#E6DBD0" transform="translate(11,29)"/>
<path d="M0 0 C0.66 0.33 1.32 0.66 2 1 C2 1.66 2 2.32 2 3 C3.32 3.66 4.64 4.32 6 5 C1.545 5.495 1.545 5.495 -3 6 C-2 2 -2 2 0 0 Z " fill="#0B1223" transform="translate(15,12)"/>
<path d="M0 0 C1.32 0 2.64 0 4 0 C4 0.66 4 1.32 4 2 C3.34 2 2.68 2 2 2 C2 4.31 2 6.62 2 9 C1.34 9 0.68 9 0 9 C0 6.03 0 3.06 0 0 Z " fill="#191918" transform="translate(110,11)"/>
<path d="M0 0 C0.99 0.33 1.98 0.66 3 1 C2.67 2.65 2.34 4.3 2 6 C0.35 6 -1.3 6 -3 6 C-2 4 -1 2 0 0 Z " fill="#EEEBE3" transform="translate(34,89)"/>
<path d="M0 0 C0.99 0.33 1.98 0.66 3 1 C2.67 2.65 2.34 4.3 2 6 C1.01 6 0.02 6 -1 6 C-1.042721 4.33388095 -1.04063832 2.66617115 -1 1 C-0.67 0.67 -0.34 0.34 0 0 Z " fill="#596448" transform="translate(95,86)"/>
<path d="M0 0 C0.99 0.33 1.98 0.66 3 1 C3 2.65 3 4.3 3 6 C1.68 5.67 0.36 5.34 -1 5 C-0.67 3.35 -0.34 1.7 0 0 Z " fill="#262624" transform="translate(111,54)"/>
<path d="M0 0 C2.64 0 5.28 0 8 0 C8 0.66 8 1.32 8 2 C3.545 2.495 3.545 2.495 -1 3 C-0.67 2.01 -0.34 1.02 0 0 Z " fill="#F9F8F3" transform="translate(107,48)"/>
<path d="M0 0 C0.99 0 1.98 0 3 0 C3.33 1.98 3.66 3.96 4 6 C2.68 5.67 1.36 5.34 0 5 C0 3.35 0 1.7 0 0 Z " fill="#0B0A0B" transform="translate(12,46)"/>
<path d="M0 0 C1.98 0 3.96 0 6 0 C5.67 1.65 5.34 3.3 5 5 C4.67 4.01 4.34 3.02 4 2 C3.34 2 2.68 2 2 2 C2 2.66 2 3.32 2 4 C1.01 4 0.02 4 -1 4 C-0.67 2.68 -0.34 1.36 0 0 Z " fill="#353D28" transform="translate(58,33)"/>
<path d="M0 0 C0.33 0 0.66 0 1 0 C1.33 1.65 1.66 3.3 2 5 C3.65 4.34 5.3 3.68 7 3 C6.67 4.32 6.34 5.64 6 7 C4.02 7 2.04 7 0 7 C-1.04449911 3.86650268 -0.93423645 3.01031744 0 0 Z " fill="#2F2E2E" transform="translate(103,29)"/>
<path d="M0 0 C0.99 0 1.98 0 3 0 C3 1.98 3 3.96 3 6 C1.35 5.67 -0.3 5.34 -2 5 C-2 4.34 -2 3.68 -2 3 C-1.34 3 -0.68 3 0 3 C0 2.01 0 1.02 0 0 Z " fill="#707E5B" transform="translate(192,87)"/>
<path d="M0 0 C0.66 0 1.32 0 2 0 C2 0.66 2 1.32 2 2 C2.99 1.34 3.98 0.68 5 0 C6.32 0 7.64 0 9 0 C9 0.66 9 1.32 9 2 C6.04335481 3.4783226 3.25770263 3.06032783 0 3 C0 2.01 0 1.02 0 0 Z " fill="#030151" transform="translate(56,69)"/>
<path d="M0 0 C1.32 0 2.64 0 4 0 C4 0.66 4 1.32 4 2 C3.34 2 2.68 2 2 2 C2 3.98 2 5.96 2 8 C1.34 8 0.68 8 0 8 C0 5.36 0 2.72 0 0 Z " fill="#161615" transform="translate(147,28)"/>
<path d="M0 0 C0.66 0.66 1.32 1.32 2 2 C1.34 2 0.68 2 0 2 C0 3.98 0 5.96 0 8 C-0.99 8 -1.98 8 -3 8 C-2.74438677 5.6568787 -2.40729228 3.32156597 -2 1 C-1.34 0.67 -0.68 0.34 0 0 Z " fill="#E3E1E0" transform="translate(102,10)"/>
<path d="M0 0 C0 3.11227195 -0.45627049 5.94152152 -1 9 C-1.66 9 -2.32 9 -3 9 C-3 6.36 -3 3.72 -3 1 C-2.01 0.67 -1.02 0.34 0 0 Z " fill="#1A1A1A" transform="translate(204,11)"/>
<path d="M0 0 C0.99 0.33 1.98 0.66 3 1 C3.33 3.97 3.66 6.94 4 10 C3.01 9.01 2.02 8.02 1 7 C1 5.68 1 4.36 1 3 C0.34 2.34 -0.32 1.68 -1 1 C-0.67 0.67 -0.34 0.34 0 0 Z " fill="#EE0102" transform="translate(48,3)"/>
<path d="M0 0 C0.99 0.33 1.98 0.66 3 1 C3 2.65 3 4.3 3 6 C1.35 6 -0.3 6 -2 6 C-2 5.34 -2 4.68 -2 4 C-1.34 4 -0.68 4 0 4 C0.33 3.34 0.66 2.68 1 2 C0.34 1.67 -0.32 1.34 -1 1 C-0.67 0.67 -0.34 0.34 0 0 Z " fill="#606855" transform="translate(105,86)"/>
<path d="M0 0 C1.65 0 3.3 0 5 0 C5 0.99 5 1.98 5 3 C2.36 3 -0.28 3 -3 3 C-2.01 2.67 -1.02 2.34 0 2 C0 1.34 0 0.68 0 0 Z " fill="#AB1416" transform="translate(39,72)"/>
<path d="M0 0 C1.98 0.495 1.98 0.495 4 1 C3.34 2.65 2.68 4.3 2 6 C1.01 5.67 0.02 5.34 -1 5 C-0.67 3.35 -0.34 1.7 0 0 Z " fill="#676664" transform="translate(119,65)"/>
<path d="M0 0 C0.66 0 1.32 0 2 0 C2.33 2.31 2.66 4.62 3 7 C2.01 7.33 1.02 7.66 0 8 C0 5.36 0 2.72 0 0 Z " fill="#63605F" transform="translate(171,52)"/>
<path d="M0 0 C0.33 0 0.66 0 1 0 C1 1.98 1 3.96 1 6 C2.98 6.495 2.98 6.495 5 7 C5 7.99 5 8.98 5 10 C3.68 9.67 2.36 9.34 1 9 C1.33 8.67 1.66 8.34 2 8 C1.34 7.67 0.68 7.34 0 7 C0 4.69 0 2.38 0 0 Z " fill="#D8D7D3" transform="translate(92,13)"/>
<path d="M0 0 C1.32 0.99 2.64 1.98 4 3 C1.69 3.33 -0.62 3.66 -3 4 C-3.33 3.34 -3.66 2.68 -4 2 C-2.68 1.34 -1.36 0.68 0 0 Z " fill="#FCFAF6" transform="translate(39,91)"/>
<path d="M0 0 C0.33 0.66 0.66 1.32 1 2 C0.0625 4.125 0.0625 4.125 -1 6 C-1.99 5.67 -2.98 5.34 -4 5 C-3.6875 3.0625 -3.6875 3.0625 -3 1 C-2.01 0.67 -1.02 0.34 0 0 Z " fill="#D4D7CD" transform="translate(139,85)"/>
<path d="M0 0 C0.33 0.99 0.66 1.98 1 3 C0 4.5625 0 4.5625 -2 6 C-4.76614782 5.96726452 -7.26030547 5.49404328 -10 5 C-10 4.67 -10 4.34 -10 4 C-6.97265625 3.75585938 -6.97265625 3.75585938 -3.9453125 3.51171875 C-1.60480784 3.12606964 -1.60480784 3.12606964 0 0 Z " fill="#C4C4AE" transform="translate(27,61)"/>
<path d="M0 0 C2.475 0.495 2.475 0.495 5 1 C3.69593116 3.01920337 2.36176581 5.01924973 1 7 C0.67 7 0.34 7 0 7 C0 4.69 0 2.38 0 0 Z " fill="#D3D4D0" transform="translate(97,63)"/>
<path d="M0 0 C0.33 0 0.66 0 1 0 C1 2.31 1 4.62 1 7 C-0.32 7.33 -1.64 7.66 -3 8 C-1.125 1.125 -1.125 1.125 0 0 Z " fill="#111821" transform="translate(60,58)"/>
<path d="M0 0 C0.33 0 0.66 0 1 0 C1.125 3.375 1.125 3.375 1 7 C0.34 7.66 -0.32 8.32 -1 9 C-1 8.34 -1 7.68 -1 7 C-2.32 7 -3.64 7 -5 7 C-4 5 -4 5 -1 4 C-0.26676204 1.98491642 -0.26676204 1.98491642 0 0 Z " fill="#ABBAA3" transform="translate(47,36)"/>
<path d="M0 0 C2.31 0 4.62 0 7 0 C7 0.99 7 1.98 7 3 C4.69 2.67 2.38 2.34 0 2 C0 1.34 0 0.68 0 0 Z " fill="#F1F2DF" transform="translate(70,35)"/>
<path d="M0 0 C0 2.64 0 5.28 0 8 C-0.33 7.34 -0.66 6.68 -1 6 C-1.66 6 -2.32 6 -3 6 C-3 4.35 -3 2.7 -3 1 C-1 0 -1 0 0 0 Z " fill="#E8E8E7" transform="translate(166,29)"/>
<path d="M0 0 C1.32 0 2.64 0 4 0 C3.67 1.65 3.34 3.3 3 5 C2.01 4.67 1.02 4.34 0 4 C0 2.68 0 1.36 0 0 Z " fill="#D4D4D3" transform="translate(85,30)"/>
<path d="M0 0 C1.67542976 0.28604898 3.34385343 0.61781233 5 1 C4.67 1.99 4.34 2.98 4 4 C2.68 4 1.36 4 0 4 C-0.33 3.01 -0.66 2.02 -1 1 C-0.67 0.67 -0.34 0.34 0 0 Z " fill="#525350" transform="translate(140,28)"/>
<path d="M0 0 C1.9375 0.3125 1.9375 0.3125 4 1 C4.33 1.99 4.66 2.98 5 4 C3.02 4 1.04 4 -1 4 C-0.67 2.68 -0.34 1.36 0 0 Z " fill="#696966" transform="translate(126,16)"/>
<path d="M0 0 C1.32 0.33 2.64 0.66 4 1 C4.33 2.32 4.66 3.64 5 5 C3.35 5 1.7 5 0 5 C0.66 4.67 1.32 4.34 2 4 C2 3.34 2 2.68 2 2 C1.34 2 0.68 2 0 2 C0 1.34 0 0.68 0 0 Z " fill="#282727" transform="translate(104,11)"/>
<path d="M0 0 C1.5625 1.25 1.5625 1.25 3 3 C2.6875 5.1875 2.6875 5.1875 2 7 C0.68 6.67 -0.64 6.34 -2 6 C-1.34 6 -0.68 6 0 6 C0 4.02 0 2.04 0 0 Z " fill="#131A29" transform="translate(35,10)"/>
<path d="M0 0 C0.99 0.33 1.98 0.66 3 1 C3 2.65 3 4.3 3 6 C1.68 5.34 0.36 4.68 -1 4 C-0.67 2.68 -0.34 1.36 0 0 Z " fill="#22211E" transform="translate(33,1)"/>
<path d="M0 0 C1.98 0.99 3.96 1.98 6 3 C5.67 3.66 5.34 4.32 5 5 C3.02 5 1.04 5 -1 5 C-0.34 4.34 0.32 3.68 1 3 C0.67 2.01 0.34 1.02 0 0 Z " fill="#F8E2E8" transform="translate(19,71)"/>
<path d="M0 0 C0.66 0.33 1.32 0.66 2 1 C2 2.32 2 3.64 2 5 C-0.4375 4.625 -0.4375 4.625 -3 4 C-3.33 3.34 -3.66 2.68 -4 2 C-2.68 2 -1.36 2 0 2 C0 1.34 0 0.68 0 0 Z " fill="#D90003" transform="translate(25,67)"/>
<path d="M0 0 C0.66 0 1.32 0 2 0 C1.34 2.64 0.68 5.28 0 8 C-0.66 8 -1.32 8 -2 8 C-1.125 2.25 -1.125 2.25 0 0 Z " fill="#363632" transform="translate(135,63)"/>
<path d="M0 0 C1.32 0.33 2.64 0.66 4 1 C3.67 2.65 3.34 4.3 3 6 C2.01 5.67 1.02 5.34 0 5 C0 3.33333333 0 1.66666667 0 0 Z " fill="#333231" transform="translate(146,54)"/>
<path d="M0 0 C-0.639375 0.12375 -1.27875 0.2475 -1.9375 0.375 C-2.618125 0.58125 -3.29875 0.7875 -4 1 C-4.33 1.66 -4.66 2.32 -5 3 C-5.99 1.68 -6.98 0.36 -8 -1 C-4.59745511 -2.2151946 -3.06748874 -1.86240388 0 0 Z " fill="#EBE9E7" transform="translate(87,52)"/>
<path d="M0 0 C0.33 0 0.66 0 1 0 C1.33 3.3 1.66 6.6 2 10 C0.68 9.67 -0.64 9.34 -2 9 C-2 8.34 -2 7.68 -2 7 C-1.34 7 -0.68 7 0 7 C0 4.69 0 2.38 0 0 Z " fill="#A3201D" transform="translate(18,38)"/>
<path d="M0 0 C1.134375 0.020625 2.26875 0.04125 3.4375 0.0625 C1.6875 3.9375 1.6875 3.9375 -0.5625 5.0625 C-0.5625 4.0725 -0.5625 3.0825 -0.5625 2.0625 C-1.8825 1.7325 -3.2025 1.4025 -4.5625 1.0625 C-3.5625 0.0625 -3.5625 0.0625 0 0 Z " fill="#CCD5C6" transform="translate(65.5625,40.9375)"/>
<path d="M0 0 C0.66 0 1.32 0 2 0 C1.6875 2.875 1.6875 2.875 1 6 C0.01 6.66 -0.98 7.32 -2 8 C-2 6.68 -2 5.36 -2 4 C-1.34 4 -0.68 4 0 4 C0 2.68 0 1.36 0 0 Z " fill="#1B2211" transform="translate(63,34)"/>
<path d="M0 0 C0.66 0 1.32 0 2 0 C1.38722388 2.96175123 0.74627478 4.38058783 -1 7 C-1.99 6.67 -2.98 6.34 -4 6 C-2.7260411 3.96166576 -1.38938077 1.96147874 0 0 Z " fill="#F2F4E4" transform="translate(41,35)"/>
<path d="M0 0 C0.99 0 1.98 0 3 0 C2.67 1.65 2.34 3.3 2 5 C1.01 4.67 0.02 4.34 -1 4 C-0.67 2.68 -0.34 1.36 0 0 Z " fill="#E4E4E3" transform="translate(144,13)"/>
<path d="M0 0 C-0.598125 0.433125 -1.19625 0.86625 -1.8125 1.3125 C-3.70783087 2.77461239 -5.3528593 4.27050227 -7 6 C-7 4.02 -7 2.04 -7 0 C-4.3333581 -1.33332095 -2.83319697 -0.67102033 0 0 Z " fill="#B4B4B3" transform="translate(129,13)"/>
</svg>
